<svg version="1.2" xmlns="http://www.w3.org/2000/svg" viewBox="0 0 2294 2144"><style>.s0 { fill: #000000 }</style><g id="l23rjJFR0akJVn9EeHibqrP"><g id="Layer"><path id="pEvvG2tfK" fill-rule="evenodd" class="s0" d="M1221.5 2136.5c-2-5.3-2-12.5 0-26.3 3.5-24.4 8.8-31.2 42.5-54 19.3-12.9 30.5-22.9 43.8-38.2 20-23.5 24.5-27 62.5-46.5 28.7-14.7 28.7-15.2 0-7-9.5 2.8-23 5.8-29.8 6.8-15.2 2-41.8 11.2-65.3 22.5-24.4 11.7-50.7 19.2-61 17.5-16.9-3-16.7-5.8.6-16 7-4.3 19.7-12.8 28.2-18.8 11.5-8.2 18.3-11 27.5-12 8.5-.7 16.8-4 27.3-10.7 19.4-12.5 40.2-21 51.5-21.3 4.7 0 19.4 2.3 32.5 5.3 40.7 9 45.5 9 69.7-1.5 29.7-13 31.2-14.8 15.5-16.5-7-1-17.5-4-23.5-7-11.3-5.5-52.5-41.3-50.3-43.5 2-2.3 19.3 1.5 26 5.5 3.8 2.2 17 11 29.8 19.7 13 8.5 25.5 15.5 28 15.5 2.7 0 7 1.3 10 2.8 3.5 2 7 1.7 12.2-.3 6.8-3 15.5-10.7 10.8-9.7-7 1.2-12.5-1.5-23.5-11.8-7-6.5-12.5-12.7-12.5-14.2 0-5.3 29.7 0 43.7 8 7.5 4.2 16.8 7.7 20.8 7.7 18.2 0 98-32.7 98-40 0-3.2-8-3.2-16 0-18 6.8-57 15.3-70.5 15.5-8.5 0-22-1.7-30-4.2l-14.5-4.3 8.5-7.2c4.7-4 12.7-8.3 17.5-9.8 19.7-5.5 50.2-10 67.5-10h18.2l-11.7-10.7c-8.8-8.3-11.5-12.8-11.5-18.5 0-4 .7-8 1.5-9 3.5-3.5 21.2 9 36.7 26l16.8 17.7 18.7-15.7c20-17 20.3-19.3 2-19.5-4.5-.3-8.2-1.3-8.2-2.8 0-3.2 8.5-4.7 26.2-4.2 16.5.2 27.8-4.3 59-24.5 12.8-8.3 18.8-14.3 26-26.3 8.3-13.5 17.5-37 15.5-39-1-1.2-21 19.3-29.5 30-15.5 20.3-68.7 50.8-76 43.5-3.5-3.5 17-21.2 33.8-28.7 17.7-8 72.5-62 72.5-71.5 0-3.3 1.7-11 3.7-16.8 2-5.7 3.8-15 3.8-20.2 0-5.3 1.2-10.3 2.5-11 1.5-.8 2.5-2.8 2.5-4.3 0-1.7-5-2-14.3-1-21 2.5-22.2 3.3-27 13.5-2.2 5-6.5 14.3-9.5 20.5-4.5 10.3-25.2 37-34.2 44.3-5.8 4.7-29 11.7-33.5 10-3.5-1.3-3-3.3 2.5-14 3.2-7 10.7-16.3 16.5-20.8 5.5-4.5 14.7-12.5 20.5-18 7.7-7 8.5-8.2 2.7-4.5-9.2 6-30.5 16.8-38 19-4.5 1.5-5.7.8-5.7-2.7.2-8 6-15.3 18.2-23.5 6.5-4.3 11.5-8.3 11-8.8s-5.7.8-11.7 2.8c-5.8 2-13.3 3.7-16.3 3.7-9.2 0-17.5 8.8-34 36.5-8.7 14.8-21.5 33-28.5 40.8-6.7 7.7-18 22-24.5 31.7-7.5 11.5-14.7 19-19.5 21-4 1.8-11.5 6.5-16.5 10.5-9.7 7.8-17.5 8.3-16.2 1.5.2-2.5 5-11.2 10.2-20 5.3-8.7 10.5-19.7 11.5-24.5 3.5-16.5 9.3-23.7 44.5-58l35.5-34.2-18.2-.3c-20.8 0-31.3 3.5-41.5 14.8-7 7.2-16.5 10.5-16.5 5.5 0-1.3 3.5-5.3 7.7-9 4.3-3.5 7.3-7 6.5-7.8-.7-.7-7.5-2-15.2-2.7-16.3-1.8-19.5.2-27 16.2-5.8 12.3-12.5 17.5-25.8 20.5-12.5 2.8-13.7-2.2-4-14.2 4.3-5 7.3-9.5 7-10-.5-.3-11.2.5-24.2 2-19 1.7-26.3 1.5-38.5-1.5-16.3-4.3-22.8-8.5-16.5-10.8 2-.7 12.2-5.7 22.5-11.2 16.5-8.8 21.2-10 40-11 17.5-1 23.5-.3 34 3.7 27.7 11 74.5 12.3 138.3 3.8l10.7-1.5-5.8-4.8c-12.2-9.2-27.5-12-54.7-9-13.8 1.5-25.8 2-26.5 1.3-5-4.8 23.2-19.3 37.7-19.3 11.5 0 39 10.5 52.3 20l10.5 7.8 21.2-5c11.5-2.5 26-5.8 32.3-7l11.2-2.5-7.2-3c-12.5-5-21.5-13-25.3-22-4.7-11.3-5-10.8 2.8-10.8 9.7 0 29.5 11.8 38.5 22.8 8.5 10.7 11.5 11.2 46 8 16.5-1.5 17-1.8 10.5-5-5.8-3-6.3-4.3-3.8-7.3 6-7.2 17-11 32.3-11 14.7 0 19.7-3.2 10-6.2-3-1-7.8-5.8-11-11-6-9.3-17-18.8-29.5-25-6.5-3.3-8.8-7.8-5.8-10.8 2.5-2.5 34.5 3 45.8 8 6.7 3 19.2 12.8 29.7 23l17.8 17.8 12-7.3c7.7-4.7 15-12.2 20.7-21.7 5-7.8 15.5-24.5 23.5-37 12.3-19.5 13.5-22.5 8.8-21-17.8 5.2-39.8 9.2-43.8 7.5-3.7-1.5-2.7-3.3 7.5-12.5 12.3-10.8 20.8-13.8 38.8-13.8 6.2 0 10.5-2 15.7-7.7 4-4.3 7.3-9.3 7.3-11 0-1.8-3.3-10.3-7.3-19-3.7-8.8-7.7-19-8.7-22.8-1.8-7.2-11.3-14-30.3-21.5-6.7-2.5-19.7-9.2-28.7-14.7-13.3-8-17.5-12.3-23-23-6.5-12.5-7-17.8-2.3-17.8 1 0 8.3 5.5 16 12.3 8 7 19.3 14 26.3 16.2 6.7 2.3 17 8.3 22.7 13.3 5.8 4.7 11.3 8.2 12 7.5 2.5-2.5-6.7-27.5-13.5-36.3-3.2-4.5-16.7-16.7-29.7-27.2-26.3-21-39.5-39.8-47.3-67-2.5-8.3-9.5-26.3-15.5-40-6.2-13.8-12.2-31.3-13.5-38.8-1-7.5-3.5-20.2-5-28-2.5-11.2-2.5-15.2-.2-17.5 2.5-2.5 3.7-2.2 6.5.5 4.2 4.3 20.5 43 25.7 61.3 4.8 15.7 11.5 27.2 23.5 40 5.3 5.5 13.5 18.5 18.5 28.7 4.8 10.3 10.5 21.5 12.5 25 3.8 6 4 5 3-14.2-.7-18-2.2-23-11.2-41.8-9.8-19.5-13.3-34-8.5-34 1 0 5.5 8.3 10.2 18.3 4.5 9.7 8.8 16.7 9.5 15 .5-1.8-.2-18.5-2-37.5-1.7-19-3.2-48.5-3.5-65.8-.2-17.2-1.7-34.2-3.2-38.2-6.8-16-8.3-37.3-4-56 7-31.3 11.5-23.3 15.7 28 1.8 19.2 4 40 5.3 46 1.2 7.7 1 15.2-1.5 24.5-4.3 16-4.5 32.2-.8 34.5 1.5 1.2 2 5.5 1 11.5-1 5.5-1 15.5 0 22.2l1.8 12.5 7.5-6.2c9.2-7.8 14-8 16-.3 1.5 6.8-5.5 22.8-13.8 30-7.5 6.8-10 19-8.5 41 1.3 15.3 3.3 23 10.3 36.8 4.7 9.5 12.5 29.7 17.2 45 4.8 15 10 29.7 11.5 32.5 2.5 4.5 3 4.2 4.3-3.5.7-4.8 2.7-9 4.7-9.8 3-1 3.3 1 1.5 11-3 18-2.5 26 2.3 37.3 4 9.5 4.5 9.7 8 5.2 6.7-9.2 13.5-31.5 15-49.7 1-9.8 3-20.3 4.7-23q6.4-10.5-9.7-29.3c-5-5.7-11.3-15-14-20.7-5.5-11.3-6.8-32.3-2.3-35.3 3.5-2 12.3 8.5 22.5 27.5l7.8 14.5 4.7-13.7c4.3-12.8 4.3-14.8.8-28.3-2-8-6.8-20.2-10.8-27-11.5-20.7-14-33.7-10.2-54.7 3.7-22.8 4.2-24.3 7.2-24.3 3.5 0 7.3 15.3 8.8 33.8.7 8.2 4.7 24.7 8.7 36.7 4.3 12.3 7.8 24.5 8 27.5 0 5.5.3 5.5 2.5-.5 1.8-4.2 1.8-20.2-.2-48.7-3.8-59.3-3-57.3-16.5-65-17-10-28-20.8-29.8-29-1-4.3-1.2-8.3-.5-9 .8-.5 8.8 2.5 18 6.7 9.3 4.3 17.3 7.3 18 6.5 1.5-1.5-8.2-30.5-20.5-60.2-4.5-11-9-24-10-28.8-2.7-12-10.7-24.2-26.5-39-18.2-17-23.5-20-41-23.5-25-5-37.2-12.7-49.7-31.7-15.5-22.8-13.5-25.8 8.7-12.5 28.8 17.2 29.5 15.5 4.3-10-16.8-16.8-28-30.8-35.8-44.5-18.2-32.3-14.2-40 10.3-19.8 7.7 6.3 18.2 14 23.5 17.3 11.5 7.2 26.7 24.7 31.7 36.2 16.5 38.3 28.8 57.5 40.5 63.8 3.8 1.7 14 10.5 22.5 19.2l15.8 15.8-1.3-13.3c-.7-8.5-4.2-19-10.2-30.5-9.3-17.7-10.8-23.7-6.8-26.2 1.3-.8 5.5 5.2 9 13 13.3 28.2 10.3 2.2-4-34.8-4-10.7-7.2-21.5-7.2-24 0-3.2-3.5-6.2-10.5-9.5-5.8-2.5-12.5-6.7-14.8-9.5-4.5-4.5-4.7-4.5-11 3.3-7.5 8.7-11.2 8.2-11.2-2 0-6.3-1-7.3-9.5-8.8-13.3-2-23.8-10.5-20.5-16.2 1.2-2.5 1.5-7 .7-10-1.5-6.3 4.8-14.5 13.8-18 7.7-3 19.5 3.2 25 13 4.2 7.2 9.7 10.2 7.2 3.7-.7-1.7-3.7-11-6.7-20.5-5.3-17.2-11.3-27-15.3-24.5-1.2.8-2.2-.5-2.2-2.7 0-10.3-19.8-36-32.8-42.8-10.2-5.2-18.7-4.2-36.2 4-21 9.8-45.3 13.3-83 11.8-21.8-.8-35.5-.3-46 2.2-15 3.5-15.5 3.5-28-3-14-7.2-18-10.2-16-12.2.7-.8 8-3 16-5 8-2.3 21.5-7.3 29.7-11.5 14-7.5 16-7.8 32.5-6 9.5 1 23.8 2.2 31.3 2.7s20 2.3 27.7 3.8c7.5 1.5 16.5 2.2 20 1.7 4.8-.7 1.8-3-15.2-11-26.8-12.7-38.3-22.7-48-42-4.3-8.5-11-20-15-26-6.3-9-6.8-10.7-3.3-12 7-2.7 16 4.3 30.8 24.3 20.7 27.5 55.7 54.5 78 59.7 7.5 1.8 16 4.3 18.5 5.5 4.2 2.3 4.5 2 2.7-3.2-1-3.3-4.2-18-7.5-32.8-5.5-26-6-27-20-43.2l-14.7-16.5-21.5 1.7c-17.5 1.3-23.3.8-29.5-2.5-4.5-2.2-8-5.5-8-7.5 0-4 16-9 28.7-9h9.3l-8.8-9.7c-4.7-5.5-10-12.3-11.7-15-3.5-7-25.3-17.5-41-20-8.3-1.5-16.3-1-25 1.2-18.8 5-45.5 4.5-58.3-1.5-12.5-5.5-13.5-9-3.7-12.7 9.7-3.8 25.2-3.3 36.7 1.7 9.5 3.8 19.3 3.8 45-.2 2.8-.5 7-1 9.5-1 3.3-.3 1.8-2.8-5.7-10.3-5.3-5.2-12.5-15.2-15.8-21.7-5.7-11-6.7-11.8-20.2-14.5-16.8-3.5-19.8-2-30 14.5-8.8 13.7-18 19.2-32.5 19.2-9 0-11.5-1-11.5-4 0-5.7 9.2-20.2 14.2-22 8.5-3.2 1-3.7-8.2-.5-5.8 2-18.8 3.3-32.5 3-20.3-.2-23.8-1-33-7.2-16.3-10.8-14.3-14.8 10.2-19.8 48.3-10 51-11 44.3-13.7-15-6.3-36.5-8.8-58.8-7-12.2 1-24 2.7-25.5 4.2-1.7 1.5-5.2 9.5-8 18-2.5 8.3-7.7 20.8-11.2 27.5-3.5 6.8-6.5 14-6.5 16.3 0 6.2-17.8 38.7-27.5 50.2-9.3 11.3-34.5 31.3-36.8 29.3-1.7-2 6.3-35.8 10-42.5 1.5-3 4.8-7.8 7-10.5 6-7.3 21.5-37.8 27.3-53.8 3-8.5 9-18 15.5-24.5 9-9.2 9.7-10.5 4.7-10.5-3 0-9.5 2.3-14.7 4.8-12 6.2-43.3 38.5-50.3 52-3 6-8.2 12.5-11.7 14.7-3.5 2.5-10.3 10.3-14.8 17.5-10 15.8-22.2 23.5-28 17.8-3-3-2.7-4.5 2.5-10.8 3.3-4 9-14 12.8-22.2 8.5-18.8 14.5-25.5 29.5-32.5 7.2-3.3 18.2-12.5 28.5-23.5 19.7-21.3 18.2-22-21.5-10l-26 7.7-30.5-2.7c-17-1.5-34.5-4.5-39-6.5s-17.8-5.3-29.5-7.3c-24.5-4-40-9.7-40-14.7 0-2.8 5.7-3.8 28.7-4 30.8-.5 41 2.2 56.8 15 5 4.2 12.2 6 30.2 8 22.5 2.2 25 2 45-4.3 11.8-3.5 25.5-6.5 30.8-6.5l9.7-.2-9-8c-9.2-8.3-16.2-24-13.7-30.8 1.2-3.2 2.2-3.2 8.5 0 8.5 4.3 23.7 20.8 29 31 3.7 7 4.7 7.5 17 7 42.2-2 72-5 72-7.5-.3-4.5-9.3-29.2-11.5-31.5-1.3-1.2-12.3-5-24.8-8.7-12.2-3.5-31.2-10-42-14.3l-19.2-7.7-14.3 6.5c-13.2 6-22 6.5-20 1 .3-1.3 6.5-4.8 13.8-7.8 7.2-2.7 13-6 13-7 0-3.5-29.3-24.7-39.5-28.7-10-3.8-12.8-3.8-38.8 0-20.5 3-31.2 3.2-40.5 1.5-6.7-1.3-23.2-4-36.2-6-57.5-8.8-69.8-13.5-77.8-29.3-2.7-5.5-4.5-10.5-4-11 .8-.7 14.3-1.7 30.5-2.5 28.5-1.2 29.5-1.2 44.5 6 8.5 4.3 18.3 8.3 21.8 9.3 6 1.7 57.5 5.7 57.5 4.5 0-.5-3.3-6-7.5-12.8-4-6.5-8-16.7-9-22.5-1.8-12-12.5-28-22.8-34.7-4.5-3-11.7-4.5-20.5-4.5-17.2 0-19.7-5-3.5-7.5l12-1.8-10.5-9.2c-5.5-5-12-13.5-14.2-18.8-4-9.7-4.3-9.7-17.3-.7-7.5 5.2-23 5-37.2-.5-7.5-2.8-7.3-8.5 0-11.3 2.2-1 6.7-3 9.7-4.7 5-3.3 4.8-3.5-9.5-18-8-8.3-18.7-18.8-23.7-23.3-18.3-16.5-1-16.5 32.7 0 13 6.3 14 6.5 7.8 1.5-7.5-6-35.3-33.7-49.8-49.2-4.7-5.3-14.7-12.8-22-16.8-17.5-9.2-16-16 2-10 5.3 1.8 5.5 1.3 3-5.2-1.2-4-7-12.8-12.5-19.5-14.5-17.5-17.2-24-17.2-40.3 0-9.5-1.5-16.7-4.8-22-7-11.5-8.7-19-4.5-19 5.8 0 16.8 24.8 16.8 38.5 0 11.5 5.5 27.5 10.5 30.5 4 2.5 5-.7 1.7-6.2-1.7-2.8-2.5-6-1.2-7 3.5-3.5 10.7 8.7 13.7 23.5 1.5 8 6 19.7 9.8 26 10.5 18.2 24.5 38.5 29 42 3.5 3 4 2.5 4-5 0-14.5 3-27.3 6.2-27.3 6.8 0 12.3 13.5 12.8 31.8l.5 18.2 17.5 18.8c13.5 14.5 19.2 23 25.5 38.2 4.5 10.5 10.7 22 14 25.5l6 6.3v-13.3c0-8.5 1-13 3-13 1.7 0 1.5-1.2-1-3-2.3-1.7-4.8-6.5-5.8-10.7-.7-4-6.7-18.3-13.2-31-9.8-20.3-11.5-26.3-12-40.8-.3-9.2-2-23-3.5-30.7-3.5-16.3-1.5-21 5.5-14.5 8 7.2 16 22.7 26 49.5 21 57.5 24.5 76.2 18.5 96.2-4.3 14.8-3 24 4.5 32.8l6.7 8.2 1.5-12.7c1.8-13.5 9.3-35.8 12.3-35.8s7 11.5 8.7 25.3c1.3 11 .5 15.5-3.5 23.5-7.2 13.5-6.5 24.7 2 43 8.3 17 25 31.7 39.5 34.7 4.5.7 13.3 4.7 19.5 8.7 6.3 4 11.8 7.3 12.3 7.3 1.5 0-8-24.5-14-36-4-7.5-5.5-14.8-5.3-27.3 0-9.2 1.3-18.2 2.5-19.4 1.8-1.8 6.3 1.9 14 11.7 13.8 17.5 21.8 33.3 23.5 46.5l1.5 10 6-6.5c7.5-8.3 10-6.8 12 7.3 1.5 9.2.8 12.9-4.7 22.7-3.5 6.5-6.5 12-6.5 12.3 0 .2 8.7 4.5 19.7 9.4 22.5 10.5 52 18.6 55.3 15.3 2.2-2.5-6.8-38.5-12-47.8-2.8-5.2-3.5-5.2-11.5-2-9.5 4-11.5 3-11.5-5.7 0-3.5-2.8-8.8-6.3-12-7.5-6.8-8.5-20.3-2.2-29.8 3.2-5 6.2-6.2 14.7-6.2 6 0 12.8.7 15 1.5 4.8 2 11.3 13.7 11.3 20.5 0 2.7 2.2 5.5 5 6.2 2.7.8 5 2.5 5 3.8 0 3-6.3 9.7-10.5 11-2 .7 0 8.2 6.2 23.5 5 12.2 10.3 29 11.8 37.3 8.2 47 10.5 51 32.2 60.5 7.8 3.2 21.3 9.7 30.3 14.2 16.2 8.5 54.7 20 61.2 18.5 2-.5-6-10.5-20.5-25.8-13-13.7-27.2-29.9-31.5-36.2-10-15-13.5-17.5-24.5-17.5-5.2 0-13.5-2.5-18.5-5.2-8.7-5.3-18-18.5-14.2-20.5 2-1.5 27 2.2 30.5 4.5 3.7 2.2 3.2.5-5-22.5-11.8-33.8-24.5-50.8-56.8-76.5-11.5-9.3-17.5-16.5-23.2-28-4.3-8.5-12-21-17.5-28-9.8-12-11.8-18.5-6-20.5 4.7-1.5 24 17.5 36 35.5 6.2 9.5 19.7 26 29.7 36.2 10 10.3 19.8 22.3 21.8 26.8 1.7 4.2 6 11.7 9.2 16.4 3.3 5.1 9.5 18.8 13.8 31.1 9.7 27.7 26.5 57.2 44.7 79 8 9.2 14.8 16.7 15.3 16.7 2.5 0-3.3-37.8-7-46.3-7.5-16.7-10.5-35.2-11.3-67.2-.7-33.8 3-64 8-64 4.8 0 7.5 7.3 9.5 23.8 1 8.2 4.5 22.9 8 32.5 5 14.2 6 20.4 5 33.7-.7 9.7.3 24 2.5 35.8 3.8 18.2 3.8 20.7-.5 39.2l-4.5 19.5 9.3 10.7c5 6 9.7 13.8 10.7 17.3q5.3 21.7 30.8 45.8c10 9.2 18.5 16.7 18.7 16.2.5-.5-2-7.7-5.5-16.3-4-9.2-5.7-16.9-4.7-19.9 1.7-4 2.2-4.3 4.7-.5 3 4.2 13.3 33.7 15.3 44.7.7 3.5 12.5 17.7 26.5 32.3l25 25.7-6.5-14.5c-3.8-8.2-10-25.3-14-38-4-13-10-29.3-13.5-36.3-3.3-7.2-6-17.2-6-22.2 0-12-3.3-20-12.5-31.5-12-15-15.5-26.3-13.5-43.3 1-9.2 2.7-14.5 4.5-14 1.5.5 8 10.3 14.2 22 10.3 19 11.8 23.5 14.5 48.5 2 15.5 5.3 31.5 8 36.5 2.3 4.8 7.5 19.3 11 32 6.3 21.8 20.8 56.5 22.8 54.8.5-.5 2.5-20.5 4.5-44.5s5.7-50 8-57.5c3.2-11 3.7-19.3 2.2-42.5-.7-15.8-3.2-36.5-5.2-46.3-4.5-22.7-4.5-36.2 0-36.2 7 0 13.2 16.5 19 50.8l5.5 34-8 30.9c-4.3 17.3-7.5 35.3-7 40.1l.7 9 14.5-9c8-4.8 15.3-8.3 15.8-7.5 2.7 2.7-2 16.9-8 24.2-3.5 4-10.3 8.5-15.5 10.3-5 1.5-10 4.2-11 5.7-4 5.8-1.8 34.8 4.2 58 3.5 13.3 6.3 29.8 6.3 37 .2 20.5 3.7 30.3 17.7 49.5l13.5 18 .8-8c.5-4.5-2-18.3-5.5-30.5-7.5-26-8-36-2.3-54.3 5.8-18.2 10.8-17.7 20.5 2.5 14.3 29.8 18.3 52 14 77.3l-1.7 10.3 12.5-9.1c14.7-11 17.5-11.2 19.5-3q4.1 16.2-19.5 31.6c-8.3 5.2-16 9.7-17.5 10.2-6.3 2.2 14.2 58.5 30 83 4.2 6.7 10.7 20.3 14.5 30 8.2 22 9.5 23.5 10.5 12.5.2-5 3.5-17 7-26.8 8-21.4 8.2-31.4 2.5-58-4-18.4-4-20.7-.3-29.4 2.3-5.3 5.3-9.3 7-8.6 5 1.5 9.5 19 10 38.3l.5 18.3 10.8-11.8c5.7-6.5 14-18.3 18-26 6.2-12.3 7.5-17.3 7.5-32.8 0-16.5.7-19.5 7.5-28.7 4.2-5.8 8.5-10.5 9.7-10.5 3.8 0 6.3 14.7 5.5 32.3-.5 13.2 0 15.7 3.3 14.4 2-.7 7.7-2.2 12.5-3.2 10.7-2 12 2 3.7 12.5-6.5 8.3-15.5 13-29 15.3-8.7 1.4-11.7 3.4-18.7 13.4-4.5 6.5-14.5 20.3-22 30.5-13.3 17.8-20 29.5-20 35 0 4.3 17.5-7.5 32.5-21.5 17.7-16.5 22.2-19 44.7-23 14.8-2.5 23.8-6.2 44.3-18.2 14.2-8.3 27-15 28.2-15 10.5 0-6.7 28.5-27.7 45.5-6.3 5.2-17.5 11.7-24.8 14.5-7.5 3-17 8-21.2 11.2-8.3 6.3-32.3 16.5-61.8 26.3-23.2 7.5-24 9-21 46.8 2 23.2 1.8 35.7-.7 51.7-3.5 23-2.8 38 3 51.5l3.7 8.7-1.2-11.5c-1.3-12.5 3.5-51.5 7-57 2.7-4.7 6.7-1.5 12.7 10.5 6.3 12 8.8 36 5.3 51l-2.3 10.3 7.8-4.8c10.2-6.2 11.5-6 11.5 2 0 8.5-10.3 21.8-20 25.8-9 3.7-9 1.2.2 35.8 3.3 11.9 7 21.4 8.5 20.9 1.3-.4 4.3-5.7 6.5-11.7 4.5-11.8 9.8-16.3 9.8-8 0 2.8-3.3 13.5-7.5 23.8-5.3 13.4-7.5 22.9-7.5 33.5 0 23.9 3 55.7 5.2 55.7 1.3 0 2.3-1.8 2.3-3.8 0-2.2 1.7-6.5 3.7-9.7 2-3 5.8-13.5 8.5-23 7.3-27.3 16.5-44 35-62.8 9-9.2 22-25 28.5-35 8-11.7 15.8-20.2 24-25.5 6.5-4.2 12.8-7.7 13.5-7.7 2.3 0 2.3 15.5-.2 19-1 1.5-3.8 3.2-6 4.2-4.8 1.8-6.3 6.8-2 6.8 4.7 0 2.5 9.2-3.8 15-3.2 3-7.7 11-10 17.2-4.5 13.5-25.7 50.5-34.5 60-3.2 3.5-12.2 16.3-20 28-11.2 17-16.2 22.5-26.2 28-10.8 5.8-12.5 8-13.5 15.5-.5 4.8-.5 8.8 0 8.8.7 0 8-5 16.5-10.8 8.2-6 19.2-11.7 24-12.7 5.5-1 13-5.8 20.2-13 7.8-7.8 14.3-11.8 20.5-12.8 11.3-1.7 12.8 3 2.5 7-7.7 2.8-15 9-18.2 14.8-1.8 3.2.7 3.7 18.2 2.7 18.3-.7 22.5-2 41.3-11.7 23.2-12.3 33.7-13.8 54.5-7 6.7 2 19 4.7 27.2 5.5 18.5 2.2 21.3 7.5 7 13.7-25 10.5-43.2 15-56.2 13.5l-13-1.7 9.2 6.5c9.3 6.2 23.5 29.5 19.5 32-2.5 1.7-19-2.8-29-7.8-4-2-14.5-10.7-23.2-19.2l-15.8-15.3-23.7.5c-13.3.3-24.5 1-25.3 1.8-.7.7 2.8 6.7 7.8 13.5 5 6.7 9 13.7 9 15.2 0 3.5-13.8 3.5-20.3.3-2.5-1.5-7.7-8.3-11.2-15.3l-6.3-12.7-6.7 4.5c-35.3 22.7-44 31.7-50.3 52.2-3 9.3-5.2 20.5-5.2 24.8.2 4.2-1 14-2.3 21.2-1.5 7.5-2.2 14.3-1.7 14.5.5.5 7.7-8.2 16.2-19.7s18.8-24.8 22.5-29.8c4-5 9-13 11.3-18 9-22 15.5-2.2 7.7 24-3 9.8-8.5 18.5-23.2 35-10.5 12-22.8 24-27 26.5-9.8 6-11.3 8.3-11.5 17.8-.3 4-2.3 9.2-5 11.5-2.5 2.5-4.5 5.2-4.5 6.2 0 2.5 26-6.2 33-11.2 6.5-4.5 25-5.3 32.5-1.3 4 2.3 6 1.8 10.2-2.2 5.5-4.8 15-10.5 17.8-10.5.7 0 1.5 1.7 1.5 3.7s5 5.8 11.2 8.5c10.5 4.8 14.3 10.5 8.8 14-1.5 1-1.3 3.3.7 6.5 6.8 11.3-19.5 20-32.7 11-4.8-3.5-6-3.5-11.3 0-7.7 5-9.2 3-6-7.5 3.3-11.2 1.3-15.7-9-17.5-6.7-1.2-13.7.5-33.2 8.8-34.3 14.5-33.8 13.7-23.8 34 10 20.7 20.3 64.7 20.3 88 0 13-4.8 35.5-7.5 35.5-12.5 0-17-11-16-38.8.5-12.2-.3-28.7-1.8-36.2-4.2-22-10.2-42.5-12.5-42.5-3.5 0-14.7 27.2-14.7 35.2 0 4 3 14.8 6.5 24 7.7 20.5 7 31-4.3 61.5-8.2 22.5-15 33.5-19.5 30.8-3.5-2.3-1.7-14.5 6.3-46.3 5.2-20 5.7-25.5 3.5-38.5-1.3-8.2-2.8-15.2-3.3-15.7s-4.2 3.7-8.7 9.7c-4.3 5.8-10 13.5-13 17.3-5 6.5-5.3 7-.8 13.5 7 11 6 32.2-2.5 46.7-3.7 6.5-8 11.8-9.5 11.8-4.2 0-7-12-5.5-25 1.5-14-2.5-17.5-7-5.8-1.2 3.8-6.2 13-11 20.8-11.5 19-13.2 30-6.5 40.7 2.8 4.8 8.3 16.3 11.8 25.8 6.2 16.2 6.5 19.7 7 66 .2 50.2-1 62.5-7 62.5-4 0-7-7.3-14.5-35-3.8-13.8-5.3-27.8-5.8-53.8-.7-35.5-2.7-53.7-6.2-53.7-2.5 0-12.5 36.5-15.3 56-1 8.2-4.2 18-7.2 21.7-2.8 4-5 8.5-5 10 0 1.8-4 13-8.8 25-5.7 14.5-8.7 26.5-8.7 34 0 16.8-4.3 29.8-12.3 38.8-9 10-12.7 7.5-12.7-8.3 0-9.5 2.5-17.2 11-34.2 15-30.3 27.5-61.5 32-79.8 2-8.7 3-15.7 2.5-15.7-.8 0-10.5 9.5-21.5 21-22.5 23.5-40.5 34-58.3 34-6 0-10.7-.8-10.7-1.8 0-1.2 5.7-8.2 12.5-15.5 7-7.5 12.5-15.2 12.5-17 0-4.2 8.7-12.2 24.7-22.7l13.5-8.8-7.2-3.7c-11.5-6-26.3-18.3-24.5-20.8 2-3.5 37.7-2.7 47.2 1.3 4.5 2 9.5 6 11.3 8.7 1.5 3 3.7 4.8 5 4 1-.7 6-14 11-29.5 4.7-15.2 13.2-37.2 18.7-48.5 5.5-11.5 9.5-20.7 9-20.7s-9.2 4.2-19.2 9.5c-10 5.2-24 12-31 15-8.3 3.5-17.3 10.2-25.5 19.2-7 7.5-14.5 13.8-16.5 13.8-5.8 0-5.3-1 7.2-17l11.3-14.3-9.3-1.2c-8.2-1.3-11-.3-21.2 8.2-13 10.5-11.8 5.8-17 63.8-3 30.5-4.5 36.7-13 48.2-5 6.5-5.8 11-6 30.5-.3 19.5-1 24.8-6.3 34-3.2 6-7.2 10.8-8.5 10.8-3.7-.3-6.7-17.8-5.7-33.5.7-8 .5-14.5-.3-14.5-.7 0-6.7 4-13 8.5-9.2 7-12 10.7-14.5 20.5-6 22.7-18.2 58.5-20.5 59.7-1.2 1-2.2 3.5-2.2 5.8 0 5.5-19.8 35.5-33.5 50.7-6 6.8-13.3 17-16 23-7.5 15.8-29.5 33.5-34.8 28.3-1-.8.5-9.8 2.8-19.5 5-21.5 18.5-47.3 29.2-56.3 4-3.5 9-9.5 11-13.2 2-4 7.3-10.8 11.5-15.5 11.5-12.5 32.5-57.5 28.5-61.5-2.5-2.5-22 12.7-47 36.7-24.2 23.3-45 37.3-66.5 44.8-4.5 1.5-9.7 6.2-12.2 10.7-12 22-34.5 45.3-68.5 70.5-11 8-12 8.3-12 1.5 0-9.2 16.5-28 47.5-53.5 11.5-9.5 20.5-19 19.2-20.2-.5-.8-6 .5-12 2.7-6 2.3-16 5.8-22.2 7.8-6.3 2-23.5 10.7-38.5 19.2-28 16-31.5 20-31.5 35.3 0 5-2 10-4.8 12.5-5.7 5.2-9.2 1.5-5.2-5.8 1.2-2.7 2.5-9 2.5-14 0-8.2-.5-9-5.5-7.2-10.5 3.2-33.3 15.5-37.5 20.2-4.5 4.8-10.8 28-8.3 30.3.8 1 4.5 1.5 8.3 1.7 8.2 0 11 8.5 3.5 10.5-4.3 1-4.8 2.8-3.8 9.8 1 5.5-.2 12.2-3 18.5-4.2 9.5-5 10-15.7 10-14 0-27-7.5-29.3-17.3-1.7-8 1.5-17.7 7.3-22.5 5-4.2 5.2-7.7 0-7.7-2.3 0-3.5-1.5-2.8-3 .5-2 5.8-3.3 13.8-3.3 11.7 0 13-.5 13-5.5 0-3 1.2-8.5 2.5-12.2 1.5-3.8 2.2-7 1.7-7.5-1.5-1.5-50.5 23.2-53.7 27.2-2.3 2.5-2.8 6.3-1.5 9.8 2.5 8.5 1.7 17.7-2.8 33.2-4.7 16.3-9.7 17.8-15.2 4.8-2.8-6.5-3.3-13-2.3-21.3 1-6.7 1.3-12.2.5-12.2-.5 0-6 6.2-11.7 14l-10.5 14 4.2 13.5c4.5 14.2 3.8 26.7-2.5 38.5-1.7 3.5-4.5 9.5-6 13.5-1.7 4-4 6.2-5 5-3.7-4-7.7-19-7.7-28v-9l-7 11.2c-4 6-16.3 19.5-27.3 29.8-10.7 10.2-22.2 22.2-25 26.2l-5.5 7.5zm12.5-33.5c0-2 4.3-9.2 9.3-16.2 5-6.8 7.5-12 5.5-11.3-5.5 1.8-17.3 20.3-19.8 31-2 8.8-1.7 9.3 1.5 5 2-2.7 3.5-6.5 3.5-8.5zm23.8-8.7c15.2-15.5 32.2-40 22.2-31.8-24.7 20.5-41 38.5-41 45.5 0 4.5 4.3 1.3 18.8-13.7zm46-13.5c3-11 3.5-24 1-26.8-2-2-8 19.3-8.3 29.3 0 9.7 4.3 8.2 7.3-2.5zm37.5-61.3c.2-5.2-.8-9.5-2-9.5-3 0-6 21.8-3.8 25.5 2.5 4 5.5-4.2 5.8-16zm63.5 13.8c.7-1.3 2-6 2.7-10.8l1.8-8.7-5 6.2c-5.3 6.5-7 15-3 15 1.5 0 3-.7 3.5-1.7zm-11.3-11.8c6.3-12.5 6.5-14 2.5-14-6 0-12 8.5-12 16.8 0 11.2 3 10.5 9.5-2.8zm-125-32.5c9.3-4.5 19.5-9.2 23-10.2s11.3-4 17.3-6.8c6.2-2.7 20.2-6.5 31.5-8.2 22-3.5 43-11.3 36-13-7-1.8-44.3 8.7-74.8 21-31.2 12.5-58.2 25.5-53 25.7 1.8 0 10.8-3.7 20-8.5zm-7-7.7c12.5-6.3 22.5-11.8 22.5-12.3s-5.2.3-11.7 1.3c-12 2.2-30 11.5-35.8 18.2-5.2 6.8 1 4.8 25-7.2zm96.3-34.3l16-3-10.5-3.2c-13.5-4.3-21-2.5-44.5 9.7-29.8 15.3-30.8 17.8-2.8 8.3 14-4.8 32.8-10 41.8-11.8zm292-17.5c3.7-5 6.7-9.7 6.7-10.7 0-.8 3-5.8 6.5-11.3 3.8-5.5 6.3-10.7 5.5-11.2-2.2-2.3-14.2 12.7-21.7 27.7-11.5 22.8-10.5 24.3 3 5.5zm6.7 4.5c0-3-3.5 1.3-7.7 9.8-2 4-1.5 3.7 2.5-1 3-3.3 5.2-7 5.2-8.8zm-112.5-1.2c4.8-4 8.3-8 7.5-8.5-.7-.8-5.5 2.5-10.5 7.2-11.5 10.3-9.2 11.3 3 1.3zm144-40c11.5-16.5 11.8-18.8 1.5-8.3-5.7 5.8-10.5 11.3-10.5 12.3 0 .7-2.5 5-5.7 9.2-10.8 14.3-10.3 15.5 1 3 6-6.7 12.2-14 13.7-16.2zm-234 14.7c-2-1.2-8.5-5.2-14.2-8.7-6-3.5-10.8-6-10.8-5.3 0 2.3 26 19 27.3 17.5.7-.7-.3-2.5-2.3-3.5zm62.5-13.7c0-.5-4.7-3.5-10.2-6.5-11.8-6-19.3-3-9.5 3.7 5.2 3.5 19.7 5.8 19.7 2.8zm174.3-24.8c3.7-7.2 3.7-7.5-.3-4.2-2.5 2-6 7-8.2 11.2-3.8 7.3-3.8 7.5.2 4.3 2.5-2 6-7 8.3-11.3zm-119.5-11.7c9-1.5 21-4.3 26.5-6 14.2-4.8 5.7-7.5-11.5-3.8-7.5 1.5-20.3 4-28.5 5.5-8.3 1.3-17.3 3.5-20 4.5-7.8 3.3 13.7 3 33.5-.2zm-6-12.3c3.5-1.7 2-2-5-.7-5.5.7-10.5 1.7-11 2.2-2.3 2 11.2.5 16-1.5zm283.7-9c0-1.7.8-5.2 1.5-7.7.8-2.5-.7-1-3.7 3-2.8 4.2-5.3 9.7-5.3 12.5.3 5 .3 5 3.8.2 2-2.7 3.7-6.2 3.7-8zm-233.5-22.5c-12.7-11.2-15.2-12.2-12.5-5 1.8 4.8 21.5 19.3 23.5 17.3.8-.8-4.2-6.3-11-12.3zm159.3-17.7c.7-4 .5-11-.5-15.8l-1.8-8.7-3 8.5c-3 8.7-1.5 26.2 2 24 1-.5 2.5-4.3 3.3-8zm148-40c-2.3-9-3.5-19-2.8-22.3 1-3.2.8-12.2-.2-20.2-2-14-2-13.3-3.5 13-1 23.2-.5 30 3.7 43.7 4.3 13.3 5.3 15 6 9.3.5-3.8-1-14.5-3.2-23.5zM1593 1746c7.8-11.5 15.5-22 17-23 6.3-3.7 23.8-27.5 30-40.5 6.3-12.5 6.5-13.2 1.5-8.7-3 2.7-7.2 8.2-9.2 12.5-2.3 4-11.8 16.5-21.5 27.5-9.5 11-19.8 25.7-22.8 32.5-3.2 7-7.5 14-9.7 16-4.5 3.5-6 9-1.8 6.5 1.5-.8 8.8-11 16.5-22.8zm-13-2.2c6-13 8.8-16.5 31-41.3 15.8-17.5 12.8-17.5-7.2.5-19.8 17.5-30.8 32-33 43.3-.8 4.2-2.3 9.7-3.3 12.5-4 10.7 6-1.5 12.5-15zm251.5-3c19-20 19.3-21.5 3-12-10.2 6.2-14.7 10.2-13.7 12.7.7 2 0 5.3-1.8 7.3-1.7 2-2 3.7-.7 3.7 1 0 7.2-5.2 13.2-11.7zm100.5 3c-1.5-8.5-3-8-3 1.5 0 4 1 7 2.3 6.2 1-.7 1.5-4.2.7-7.7zm-78.2-9.8c6.2-6.2 10.7-12 10-12.7-.8-.5-8 5.7-16.3 14-8 8.5-12.5 14.2-9.7 12.7 2.7-1.5 10-7.7 16-14zm76.5-12c0-4.5-1.5-8.2-3.5-9-2.5-.7-3 0-2 3 1 2.5 1.7 6.5 1.7 9.3 0 2.5.8 4.7 2 4.7 1 0 1.8-3.5 1.8-8zm-61.8-23.7c-.7-4.8-8.7-7.5-21.2-8-18.3-.5-1.5 10.7 17.5 12 3 .2 4.2-1.3 3.7-4zm-154.7-14.3c3.5-3.5 5.2-6.5 4-6.5-3.5 0-18.5 12.5-21.5 18l-2.8 5.3 7-5.3c4-2.7 10-8 13.3-11.5zm-183.8-11.7c8-9.5 9.3-18 1.5-11-6 5.2-13 18.7-10 18.7 1 0 5-3.5 8.5-7.7zm-22.5-13.8c8.3-2 16.3-4.7 17.5-6 4-4-11.5-5.7-23.2-2.7-6.3 1.7-16.8 4.5-23.3 6-6.7 1.5-12 3.7-12 4.7 0 3.5 24.8 2.3 41-2zm204.5-3.2c6.3-4 12.3-8.8 13.5-10.8 2-3.2-2-.7-21.5 12.3-12.5 8.2-5.7 7 8-1.5zm-224-10.3c3.8-1.5 6.3-3.2 5.5-3.7-1.5-1.5-24.5 6.2-24.5 8 0 1.5 9.3-.5 19-4.3zm271.5-38c-4.2-5.2-18-12.5-18-9.7 0 1.5 4.3 5.5 9.3 8.7 9.2 6.5 13.7 6.8 8.7 1zm199.3-15.7c.2-6.3-3.5-12.5-5.5-9.5-.8 1.2-1.5 8.5-1.3 16 .3 13.2.3 13.5 3.5 6 1.8-4 3.3-9.8 3.3-12.5zm-91.8 13.2c20.5-4.5 20.3-7.2-.5-5.7-26 2.2-32 3.5-27.2 6.5 4.7 3 11.7 2.7 27.7-.8zm129.5-24c0-1.7-1-2.5-2.5-1.7-1.2.7-2.5 4-2.5 7 0 4.5.5 4.7 2.5 1.7 1.3-2 2.5-5.2 2.5-7zm-112.5 2.3c0-1.3-2.2-3.3-5-4-2.7-1-8.7-4.5-13-8.3l-8.2-6.7 5.5 8.7c4.7 7.5 10.2 11 19 12.3 1 .2 1.7-.8 1.7-2zm-8.2-19c-6.8-6.3-14-11.3-16.3-11.3-2 0 2.8 5 10.5 11.3 18.5 14.2 21.3 14.2 5.8 0zm123.2-.8c0-1.7-1-2.5-2.5-1.7-1.2.7-2.5 4-2.5 7 0 4.5.5 4.7 2.5 1.7 1.3-2 2.5-5.2 2.5-7zm-27.2-72.5c-3.3-.5-8.8.5-11.8 2.3-10.2 5.2-6.5 7.2 6 2.7 9.8-3.5 10.8-4.2 5.8-5zm-11.3-100.2c-2-3-17.7-10.3-22-10.3-1.7.3 1.8 3 8 6.3 12 6.5 16.3 7.5 14 4zm110.3-25.3c17.5-22 19.5-25 16-25-1.5 0-8 8.3-14.8 18.3-6.7 9.7-14.7 20.2-17.7 22.7-2.8 2.8-5.3 6-5.3 7.5 0 3.3 2.8.3 21.8-23.5zm-43.8-46.7c-6.7-14.5-10-19.5-11.7-17.8-1.8 1.5 4.7 18.3 9 23.8 5.5 6.5 7 3 2.7-6zm-98-11.3c-6.7-8.2-16.7-23.7-22.2-34.2-13-24.3-13.3-17.5-.5 8.7 6.2 13 13.5 23.5 21 30.5 6.5 5.8 12.2 10.5 13 10.5.7 0-4.3-7-11.3-15.5zm-2.7-26.2c-11.8-24-24.5-42.8-24.8-36.3 0 6.3 32 60.5 36 60.5.3 0-4.7-11-11.2-24.2zm305.2 11.7c0-2.7-12.7-13-26.7-21.5-13.3-7.7-13.8-5-1.3 6.8 15.5 15 28 21.5 28 14.7zm18.3-32.7c15.2-4.3 8.2-7.8-11.5-5.8-20.8 2-25.5 3.8-16.8 6.3 9.5 2.7 17.8 2.5 28.3-.5zm-22.3-12.5c11.3-1.8 16-3.5 13.8-5-5.3-3.3-15-2.8-28 1.7-12.5 4.3-19.5 10.3-9 7.8 3.2-.8 13.7-2.8 23.2-4.5zm-127-29.5c3.5-6.3 7.8-15.5 9.5-20.5 4-11.5 13.8-27 33.8-54.3 15.2-20.7 26.2-40.2 23.7-42.7-1.2-1.3 0-3-16.5 21.2-7.5 11-20.2 26.3-28.2 33.5-7.8 7.5-15.8 16.5-17.5 20-3 5.8-21.3 59-21.3 62 0 3.5 10.8-9 16.5-19.2zM1969 1223c0-5.2-6.5.5-8.2 7.3-1.3 5-1.3 5 3.5.7 2.5-2.2 4.7-6 4.7-8zm150-20.2c0-1.3 5-8.3 10.8-15.5 16.2-20.3 30.7-48.3 20.5-39.8-9.3 7.8-38.5 57.5-33.8 57.5 1.3 0 2.5-1 2.5-2.2zm-72.5-55.3c0-1.2-4.7-4.7-10.5-7.5l-10.7-5.2 8.7 7.7c8.8 7.8 12.5 9.3 12.5 5zm-107.7-86c-2.3-2-2.5-1.7-1.3 1.8.8 2.5 1.8 6 1.8 7.5.2 1.7.7 1 1.5-1.8.7-2.5-.3-5.7-2-7.5zm113.7-25.2c-2.2-17.5-5-22-7.5-12.5-2.7 9.5-2.2 39.5.5 44 3.5 6 9-17.5 7-31.5zm-96-62.3c0-1.7-33.5-20.5-39.5-22-7.5-2-7 .8 2.8 9.8 4.7 4.7 12.5 8.7 19.2 10.2 13.3 3 17.5 3.5 17.5 2zm-25-41c0-1.2-9.7-12-21.5-24.5-26-26.7-25-23 1.3 6 19.2 21 20.2 22 20.2 18.5zm9.8-5c-3.3-9.7-24.3-34.5-34.3-40.5-8-5-8.2-5-5.5-.2 1.3 2.7 8.8 11 16.3 18 7.7 7.2 16.2 16.7 19 21.5 6.2 10 7.7 10.5 4.5 1.2zm150.2-41c4.8-2.2 15.5-8 23.8-13 8.2-5 19.2-10.5 24.2-12 5.3-1.5 9.5-3.7 9.5-4.7s2.3-2.8 5.3-3.5c2.7-1 4.5-2.3 4-2.8-2.3-2.2-30.8 8.8-45.3 17.5-8 4.8-18.7 10.3-23.7 11.8-11.5 3.7-42 19-43.8 21.7-1.2 2.3 29.3-7.7 46-15zm-106.7-15.7c-4.3-8.8-8.3-11.5-8.3-5.8 0 2.5 9.5 14.5 11.8 14.5.2 0-1.3-4-3.5-8.7zm122-7.8c13.5-7.2 13.5-7.2 5.5-8-9.3-1-24.3 6.3-33 15.5l-6.3 6.8 10-3.8c5.5-1.7 16.3-6.7 23.8-10.5zm-154-7c-9.8-8-16.8-10-15.8-4.5 1 4.8 10.8 10.5 18.3 10.5 4.2 0 4-.7-2.5-6zm1.2-12.7c-3.5-4.3-7.5-5-7.5-1.5 0 1.2 2 3 4.5 3.5 2.3.7 4.8 1.2 5.3 1.5.5 0-.5-1.5-2.3-3.5zm86-17.3c-1-7.7-2.7-14-4.2-14-1.3 0-1.8 4.5-.5 11.5 3.2 22.8 7.2 25 4.7 2.5zm59.8-51.7c1.5-10.8.2-17.3-3.3-17.3-3.2 0-5.5 13.5-3.5 21 2.3 9.5 5.3 8 6.8-3.7zm-116.3-5.3c5.8-4 10.5-8.2 10.5-9.5 0-5.2-5.7-2-17 9-12.5 12-11 12.3 6.5.5zm-148.2-7c16.7-2.5 12.7-3.2-21.3-4-15.7-.2-32.7-.5-37.5-.7-4.7 0-12 .7-16.2 1.7-6.5 1.5-5.5 2 7.5 3.3 22 2 53.2 2 67.5-.3zm-89.3-6.7c7.3-3.3 15.5-4 36.8-3.8 54.7 1 67-6.5 14.7-8.7l-29.7-1.5-17.5 9c-18 9.2-20.8 12.5-4.3 5zm218 0c0-2.5-1.2-6.3-2.5-8.3-1.7-2.7-2.5-1.7-2.5 4.5 0 4.3 1.3 8 2.5 8 1.5 0 2.5-2 2.5-4.2zm4.3-22.5c-.8-10.8-3.8-26.3-6.8-34.5-11-29.8-10.5-21.5 3 40.7 1.5 7 3.3 13 4 13 .8 0 .5-8.7-.2-19.2zm-16.8-18c-2.7-12.5-5-25.5-5-29 0-3.8-1-6-2.5-5-4 2.5-2.7 19.2 2.8 36.5 2.7 8.7 5.7 17.5 6.2 19.5s1.8 3 2.5 2.2c.5-.7-1-11.5-4-24.2zm-112.7 4c-.5-.5-8.8-8-18.3-16.8-9.5-9-16-13.7-14.5-11 3.5 6.5 27.5 28.5 31.3 28.5q2.2 0 1.5-.7zM1849 640c0-3.2-17.5-3.2-22.5 0-2.7 1.8 0 2.5 9.5 2.5 7 0 13-1 13-2.5zm-336.5-40.2c2.3-5.8 3.8-11 3-11.8-.7-.5-2.5 1.8-4 5.5-1.2 3.8-3.7 9-5 11.8-1.5 2.7-1.7 4.7-.2 4.7 1.2 0 4-4.7 6.2-10.2zm18.3-6.5c12.7-18.3 22-37 24-48.3 1.2-6.2-1-3-7.8 11.3-5.5 11-12.5 23.5-16 27.5-7.7 9.2-15.5 23.7-12.5 23.7 1 0 6.5-6.5 12.3-14.2zm392.2-13.5c4.8-5.5 4.8-5.5-.7-2.5-6 3-9.8 7.7-6.3 7.7 1.3 0 4.3-2.5 7-5.2zm-200.7-1.5c-4.5-2.3-9-3.3-10-2.3-2.8 2.5 4.5 6.5 11.7 6.3 6 0 5.8-.3-1.7-4zm-245-20.8c9-9.2 11.7-15 7-15-2.8 0-22.8 21.8-22.8 24.8 0 1.2-.7 4.5-1.5 7-1 3.5-.2 3 3.3-1.3 2.5-3.2 8.7-10.2 14-15.5zm56.7 8.3c3-6.8 10-21.3 15.8-32.5 5.7-11.3 9.2-21.5 8.2-22.5-1.2-1-2.7-.5-3.2 1.2-.8 1.8-2.8 4.8-4.8 6.5-2 2-3.5 5.3-3.5 7 0 1.8-5 14.3-11 27.8-6.2 13.2-10.2 24.2-9 24.2 1 0 4.5-5.2 7.5-11.7zm173-23.8c3.8-4.5 7.5-10.2 8.3-12.5 1-2.5 2.7-4.5 4-4.5 1.2 0 2.2-1 2.2-2.5 0-7-11-.7-23.5 13.5-7.7 8.8-14 16.5-14 17.3 0 4.2 17.3-4.5 23-11.3zm-26.7-16c11.7-4.7 10.5-6.5-2.5-3.5-5.5 1.5-16.5 1.8-24.3 1-15.5-1.7-28 .3-25.7 4 2.5 4 42 3 52.5-1.5zm4.7-13c1.3-.7.3-2.2-2.5-3.2-12-4.8-36.5 0-28.2 5.5 3.5 2.2 26.2.5 30.7-2.3zm227.8-27.2c-2.5-13.8-4.5-7.5-2.3 7.2 1.3 8.5 2.3 11 3 7.3.5-3.3.3-9.8-.7-14.5zm-85-7.5c-8.8-16-9-16.5-7.8-7.5 1.3 9 13 28.5 15.8 26 .5-.8-3-9-8-18.5zm-435.3 6.7c-3.2-3.2-28.2-7.5-32.7-5.7-7.8 3-2 5.5 13.7 6.5 9.3.5 17.8 1 19.3 1.2 1.2.3 1-.7-.3-2zm132.5-18.7c-6.2-8.3-11-11.3-11-6.5 0 3 11.8 15.2 15 15.2 1.5 0-.2-4-4-8.7zm216.5-39.3c0-9-7-38.7-10.2-45-3.3-5.7-3.3-5.7-5 2.8-2.5 12.5 7 47.7 13.2 47.7 1 0 2-2.5 2-5.5zm-62.5.8c0-2.8-15.2-8.3-17.2-6.3-2.3 2 7.5 8.5 12.7 8.5 2.5 0 4.5-1 4.5-2.2zM1544 374c-.2-5-.5-5-3.7 1-4.8 8.3-4.8 11.5 0 7.5 2-1.7 3.7-5.5 3.7-8.5zm197.5-3.2c-4-12.5-7.5-16-7.5-7.8 0 9.8 5.3 22.8 8 20 1.8-1.7 1.5-5.7-.5-12.2zM1436 373c10.3-.7 3.5-4.7-12.5-7.5-8.7-1.5-26.7-3.5-40.2-4.2-14.8-.8-32-3.8-43.8-7.3-19.2-6-33-9-33-7.5 0 .5 2.8 2.8 6.3 5 6.5 4.3 24.5 8.5 62.7 14.8 12.5 2 25.5 4.7 28.8 6 5.2 2 10 2 31.7.7zm89.3-19.7c-2.3-12.8-14.5-36-15.8-30-.7 4 13.8 39.2 16.5 39.2.5 0 .3-4.2-.7-9.2zm-144-1c-5-1-13.3-4.5-18.5-7.5-10.5-6.3-46.3-10.3-46.3-5 0 1.5 4 2.7 8.8 2.7 5 0 13 1.8 18.2 4 11.8 5.3 24 8 36.8 8h10zm210.2-12.2c-3-4-6.5-7.5-7.7-7.5-3.8 0 0 10.2 6.2 17 7.5 8.2 8.8.7 1.5-9.5zm12.5-2.8c-1.7-2.7-3.5-4.5-4.2-3.7-2 2 1.2 9 4.2 9 1.8 0 1.8-1.5 0-5.3zm15-28c0-.5-3.7-4-8-8.2l-8.2-7.3 7.2 8.3c7 7.5 9 9.2 9 7.2zm-184-32.2c2.3-8.5 1.8-19-.7-20.5-3-2-5.3 4.7-5.3 16.2 0 10.8 3.5 13 6 4.3zm-90.5-45.5c5.5-4 3.3-6.5-5.2-6.5-8.3 0-14 3.5-11.8 7.2 2.5 3.8 11.8 3.3 17-.7zm35.8-70.5c-8-30.5-11-36.3-11.3-21.5 0 10 14 49.7 16.8 47.2.5-.7-2-12.2-5.5-25.7zm-59.8-16.5c-.7-3.3-1.5-7.5-1.5-9.5-.2-2.3-1.2-1.5-2.5 2-2.5 6-1 13 3 13 1.5 0 2-2.5 1-5.5z"/><path id="ppwySCSwW" fill-rule="evenodd" class="s0" d="M946 2041c-6.5-3.3-22.8-10-36-14.8-13.3-4.7-34.5-14.7-47-22.2-12.8-7.5-29.8-16.5-37.8-20.3-8.2-3.4-19-8.9-23.7-12.2-13.3-9-62.5-25.3-70-23.3-4 1.1-10.5 7.3-17 16.8-6 8.3-13.8 17-17.5 19.3-3.8 2.4-7.3 4.9-8 5.7-1.8 1.7-22 12.5-23.5 12.5-1 0-1.5-1.5-1.5-3.5 0-1.8 7.2-7.3 16.2-12 13.3-7 17.8-11 26-24 10-15.3 10-15.5 3.3-12-3.8 2-10.5 6.5-15 10-4.8 3.2-13.3 7-18.8 7.7-13.5 2.3-25.7 8.8-37 19-4.7 4.8-13.2 12-18.7 16.5l-9.8 8 7.3.3c4 0 14-2.3 22.3-5.3 7.9-2.7 15.2-4.5 15.9-4 7.8 8-41.7 21.3-58.7 15.8-7.8-2.5-6-6.8 6.5-13.5 5.8-3.3 16.5-11.3 23.8-17.8 14.7-13.7 28.2-21.2 45.7-25.5 6.7-1.7 17.2-6.7 23.5-11 6.2-4.5 13.5-8.7 16.2-10 4.5-1.7 4.3-2-2.5-5-12-5-44.5-6.7-62-3.5-17.7 3.5-23.2 7.3-28.5 20.5-5.7 14-22.7 26.3-28.7 20.5-.5-.7 2.7-8.7 7.2-18l8.5-17-14-.7c-13.5-.8-14.2-.5-27 11-7.2 6.5-17 14.2-21.7 17.5-12.5 8.2-36 13.7-51.3 12-29.2-3.3-30.2-6-8.5-23 16.8-13 33.3-18.8 47.5-16.5 14.5 2.5 13.8-3-.7-8-7.3-2.3-18.8-7-25.8-10.5-15-7.5-56.2-46.8-56.2-53.8 0-4.2 1.2-4.7 10.7-3.2 21.3 3.5 36.8 9.5 49 19.2 7 5.5 19 13.5 27 17.8 8 4.2 18.5 12 23.3 17 10.7 11.5 19.5 13.5 51 12 35.5-2 35.5-2.5 7.2-25.5-21.2-17.3-25.5-19.8-37.5-21.3-14.2-2-17.2-3.5-14.7-7.5 1.2-1.7 3.7-1.7 8.2 0 11.3 4.3 14 1.3 8.8-8.7-6.5-12-15.8-19-41.8-32-37.2-18.8-37.2-18.8-67.7-9.5-44.5 13.2-83.5 18.5-83.5 11.5 0-5.8 22.5-18.5 40-22.5 9-2 20.5-5.5 25.5-7.5 5.2-2.3 14-4 20-4 9.2 0 10-.5 7-3.5-7.3-7.3-32.8-21-41.5-22.8-8.3-1.5-9.8-.7-17.3 8-7.7 9.3-27.5 18.3-39.5 18.3-11.7 0 2.5-19.5 20.5-28.8l8.5-4.2-16.5-7.3c-11.7-5.2-22.5-7.7-36.5-9l-20-1.5-.7 11c-.8 12.3-6.5 15-10.8 5.3-1.7-4.3-3.7-5.3-7.5-4.3-20 6.5-27.5 4.5-39.7-10-8.8-10.5-9.3-12-5.8-15.7 2.8-3 3.3-5.5 1.5-8.5-1.7-3.3-.7-5.8 4.3-10.8 12-12 33.8-10.7 46 2.5l6 6.3 5.8-5.3c4.9-5 5.7-5 7.2-1.2.7 2.2.7 8 0 12.7-2 9.8-2 9.8 24.8 12.5 8.2.8 20.7 4.3 27.9 7.5 14.1 6.3 15.1 5.8 10.6-5.5-1.5-3.7-2.8-12.5-2.8-19.5l-.2-12.5-15.3-7.5c-8.2-4-20.8-11.5-27.8-16.2-12.4-8.8-12.7-8.8-35.9-8-18.3.5-23.1 0-22.3-2.5.8-2 7.8-4 18.3-5.3 9.5-1 17.7-2.2 18.2-2.7.5-.8-2-5.3-6-10.3-6.7-9-38.5-28.7-46.3-28.7-2 0-6.5 3-10 6.5-6.2 6.7-19 13.5-26 13.5-6 0-4.2-6 5-16.8 5-5.7 7.8-11 6.5-11.7-1.2-.8-18-2.5-37.2-4-47.5-3.3-59-6-70.8-16.8-5.5-5-9.7-10.5-9.7-12.2 0-8.5 38.5-.3 51 11 7.7 7.2 45.3 13.2 84.8 14 5 0 9.2 1.2 9.2 2.7 0 2.8 15.3 11.3 20 11.3 3.8 0-19-28.3-27.8-34.8-4.2-3-11.2-11.5-15.9-18.7-11-17.3-12.3-18-33.3-22.8-10.5-2.5-18-5.5-18-7.2 0-5 2.7-6.5 7.2-4.3 7.8 4 22.8 5.8 22.8 2.5 0-6.5-17.3-19-32.5-23.2-8.5-2.5-20.8-6.5-26.8-9.3-13.7-5.7-36.2-26-48-42.5-4.5-6.7-10.5-12.7-13-13.5-2.5-1-6.7-4.7-9.5-8.5-5.2-7.2-27.7-58.2-27.7-62.7 0-1.3 3.2-2.5 7-2.5 7.2 0 15.5 7.2 28.8 25.2 14.9 20.8 55.2 64.3 68 73.5 7.4 5.5 17.2 12.8 21.4 16l8 6.3-1.5-6.3c-1-3.2-4.2-15.7-7.2-27.7-6-23.8-5.8-23.3-27-28-7-1.5-27.5-19.3-27.5-23.8 0-4.7 16.3-3 28.8 3.5 6.7 3.3 12.4 5.8 12.7 5.5.2-.2-2.5-11.7-6.3-25.5-5.7-21.2-8.7-28-20.9-44.2-7.8-10.5-18.6-22.3-23.8-26.3-5-3.7-15-11.9-22-18.4-16.8-15.6-32.8-23.3-58.5-28.3-26.5-5.3-72.5-28-68.8-34 .8-1.5 7.3-2.5 14-2.5 9.8 0 21 3.7 53 17.3 22.3 9.2 43 17.7 46 18.7s11.3 8.5 18.5 16.8c7 8.2 17.8 18.2 23.5 22.2 10.3 7 41.3 45 41.3 50.8.2 1.7 2-.3 4-4 3-5.5 4.5-6.5 7.2-4.3 3 2.5 2.8 4.5-1.5 12.5-5.7 10.8-5.5 13.8 3.3 43.8 2.7 9.7 6 21.5 7.2 26.2 8.3 33.3 16 57.8 21.5 67.5 9.8 16.8 33 47.5 36 47.5 1.3 0 6-7.2 10-16 9.3-19.7 8.3-28.7-4.5-45-6-7.7-8.2-12.7-7-15.7 1.3-3.8 3-3 10.8 6.2l9.2 10.8.8-32 .5-32-23.8-25.8c-13-14.2-26.4-31.2-30.2-38-3.8-6.7-16.3-21-29.8-33.5-18.7-17.2-25.2-25-32.5-39.5-4.7-9.7-9.5-22.2-10.2-27.5-1.8-11-3.8-11.5-22.5-5.7-20 6-37.5 4.5-54.8-4.5-19-10-21.2-16.8-6-16.8 12.3 0 39.8-5.2 39.8-7.5 0-.7-5-5-11-9.5-12.8-8.7-28.8-29.2-29-36.7 0-2.8-2.8-11-6.3-18.3-11-23.5-8.2-28.5 10.5-19.2 9 4.5 15.8 11 25.8 24.2 7.5 10 18.7 23.8 25 30.8 6.2 7 13.2 15.2 15.5 18.7 4.2 6.3 4.2 6 4.2-12.7.3-10.5 1.5-25.3 3.3-33.3l2.7-14.2-12.5-13c-7-7.3-14-15.5-15.5-18.5-3-5.8-3.7-28.8-1.2-31.5 2.2-2.3 30.5 26.5 33.3 33.7 2.2 5.8 2.2 5.5 3.7-1.7 1-4 3.5-14.5 5.5-23 5-22.3 4.5-26.3-6.5-49.5-7.8-16.3-12.8-23.3-23-31.8-7.3-6.2-17-12.5-21.5-14.5-11.8-4.5-20-11.7-27.3-23.5-3.4-5.5-14.2-17.5-23.7-26.2-9.5-8.8-18.8-19-21-23-3-6.3-16-47.3-16-51 0-.8 2.3-1.3 5-1.3 5.5 0 57.5 50.3 72.5 70 4.8 6.3 13.5 16.8 19.5 23.3l11.3 12.2-1.3-21.2c-1-18.5-2.3-23-9.3-34.8-4.5-7.5-14.4-21-21.7-29.8-8.8-10-15-20.4-17.3-28.2-4-13.5-5-50.3-1.5-52.5 4.8-3 7.3 3 15.6 38.8 1.2 5 10 21 19.4 35.5 16.8 26 20.3 28.5 20.3 14 0-3.5 1.5-4.8 4.8-4.3 3 .5 8.7-3 14.7-8.7 11.3-11 14.5-9.5 11.8 5.2-1.3 6.8-5.3 12.5-14.5 21.3l-13 11.9.2 28.1v27.9l14.8 36 14.7 36.3 4.5-13.7c4.8-13.5 20.3-65.8 22.8-76.8.7-3.3.2-12.8-1.3-20.8-2.5-14.5-2.2-15.2 7.5-35.2 9.3-18.5 19-48.8 28.3-86.5 2.9-12.2 2.7-13.5-2.3-20-11-14-15.8-28.2-14-42 3-25.2 9.3-24 18.8 4 3.2 9.5 6.4 17.5 7.2 17.5.7 0 3.5-6.2 6.2-14 4.5-13.2 4.5-15 .8-33.3-4-19.2-2.8-30.9 2.5-21.2 1.2 2.5 3.2 8.7 4.2 13.5l1.8 8.5 6-6.8c8.2-9.7 9.7-17.5 6.7-37.7-2-15.2-1.5-21.5 3.5-44 3-14.5 5.8-31.3 5.8-37.3 0-7.5 2.7-16.5 9-28.5 9-17.5 37.5-56.7 41.5-56.7 4.2 0 1.7 17.3-4.3 28-3.2 6-8.2 22-11 35.8-2.5 13.7-7.7 31.5-11.2 39.7-3.5 8-6.5 18.3-6.5 22.8 0 4.2-1 11.2-2.3 15.2-1.2 4-3 13-3.7 19.8l-1.5 12.5 8.2-9.8c4.3-5.2 18.8-20.5 32-33.8 22.3-22.5 24.3-25.2 29-41.5 4.8-16 6-43.2 3.5-79.2-.2-3.2-2.2-4.5-7.5-4.5-8.7 0-15.5-6.7-10-10.2 2-1.3 5-2.3 7-2.3 2.3 0 2.8-1.7 1.5-5.5-5.5-17.5-2.2-32.3 7.5-34.3 2.8-.5 6.3-2.5 7.8-4.7 5-6.8 31 2.2 31 11 0 7.5-7 26.2-11.5 31.5-3.3 3.2-3.5 5.7-1.5 11.5 1.5 4.7 1.5 8.7 0 11.5-2.3 4-3 4-8.8-1.5l-6.2-5.8 1.2 13.8c.8 7.5 2.3 18 3.3 23.2l1.5 9.8 9.5-14.8c8.3-13.2 25.8-30.7 30.5-30.7 1 0 14.5-12.3 29.8-27.3l27.9-27.2-1.4-18.8c-.8-10.7-3.5-24-6.5-30.7-8.3-18.5-9.1-28-3-42 3-6.8 6.2-11.5 7.2-10.5 1.7 1.7 6.5 38 9.5 72.3 1 9.2 2.5 16.7 3.8 16.7 3.7 0 14.2-16.3 28.4-45 8.1-15.8 18.3-34 23.1-40.5 8.2-11.3 18.2-35 18.2-43 0-2.2-2.2-5-4.7-6.5-2.8-1.2-7.8-8.5-11.3-15.5-5-10.8-6-15.5-4.7-25.3.7-6.9 2.5-11.4 4.2-10.9 1.5.5 7.3 6.7 12.5 14 11.5 15 13.3 14 15.5-9 1-10 .3-17.8-2.5-25.5-4-11.3-3.5-15.3 2.3-15.3 7.7 0 11 25.8 6.2 49.3-10 49-13 62-16.3 69.5-1.7 4.7-2.9 8.7-2.2 8.7 5.3 0 28.3-21.7 37.3-35.5 14.7-21.7 22.5-28.7 51.2-46 13-7.7 25-15.7 27-17.5 5.8-5.7 10.5-4.2 10.5 3.5 0 4.8-3.5 10.8-11.5 19.3-6.2 7-16.2 19.7-22.5 28.7-6 9-15.7 20.5-21.7 25.8-5.8 5-19 16.7-29.3 26.2-10.2 9.3-23.7 19-30 21.5-35.5 15-37.3 16-38.8 23.3-.7 3.7-3.7 11.2-6.2 16.2-6.8 12.5-6.5 17 1.2 17 6.8 0 51-16 53.5-19.2 2-2.8 14.8-7.5 38.8-14.8 11-3.5 20.3-6.5 20.8-6.7.2-.5-1.5-6.8-4.3-13.8-5.7-14.7-6.5-29.7-2-39.2 4.8-10.5 9-7.3 14.8 12l5.2 18 5.5-11.3c7-14.2 18-31.5 21.5-33.7 1.5-1 5-7 8-13.3 5.5-12.5 28.3-38 33.8-38 12 0-13 74.8-28.8 87-2.5 1.8-6 4.5-8 6.3-2 1.7-8 6.2-13.2 10.2-5.3 4-9 7.5-8.5 8s12-4.7 25.2-11.7c19.5-10.3 27-12.8 36.8-13 12-.3 12.7-.8 18.7-11 3.8-6 8-19.3 10-31.3 4-23 5.8-26.5 26.8-50 20.2-23.2 28.7-23 15.2.5-13 22.3-21 38.8-21 43 0 2.3-4.5 12.8-10 23.3-16.5 31.2-13 34.5 11 10 10.5-10.8 19.8-23.8 26.8-37 5.7-11.3 14.7-25.3 20-31 12-13 15.5-25.8 15.7-56 .3-19.3 1.3-25.3 4.8-29 2.2-2.8 4.2-6.8 4.2-9 0-6.8 10-21.8 30-45.8 10.8-12.7 21.8-28.5 24.8-35 8.5-18.5 9.2-19.7 13.7-20.5 3.5-.7 4 2 4 20.3 0 22.5.5 21-21.5 61.7-3.2 6.3-6 12.5-6 14.3 0 5-14.7 36-22.7 47.5-4 6.2-7 11.7-6.8 12.2.8.8 44-26.5 55-34.5 3.3-2.2 5.3-9.5 7.3-23.2C937 202.8 946.8 180 952 180c3.3 0 5 12.3 4 27.8l-1 15 13.5-13.3c26.8-26.2 42.5-48.2 48.5-67.8 6-19.9 11.3-26.2 35.8-41.7 8.7-5.7 16-8.7 17.2-7.5 1.3 1.3-3 8.3-10.2 16.8-14 16.5-30.8 43.2-30.8 49.2 0 7.8-12.2 23.5-24.2 31.5-6.5 4.5-23.5 20-37.8 34.3-25 25.5-25.5 26.2-17 24.7 7.3-1.5 9-1 9 2.3 0 5.2-10.2 8.7-26 8.7-13.5 0-27 6.5-52 24.8l-10 7.2 21-1c43.3-2.5 92.3-14 122.8-28.7 12.5-6 16.7-13.5 16.7-28.8 0-10.7 7-37.5 12.8-49 2.7-5.2 8.2-13.5 12.7-18.5 8.8-10 36.5-29.7 38.8-27.5 2 2-5.5 29.3-13 47.8-8.3 20-8 24 .7 15.7 3.8-3.5 11.8-8.2 18-10.2 33.3-11 32.5-2.3-2.5 26.2l-11.2 9.3 23.7-1.5c17.8-1 30.5-3.5 50.5-10.3 15.3-5 28.5-8 31-7 6 2.3 2.3 5-14 10.5-12.2 4-13 4.5-7.5 6.3 3.5 1 9.5 1.7 13.3 2 3.7.2 14.5 4 23.7 8.7 24 12.3 40.3 15.8 54.3 12 15-4 27-4 25.7.3-.7 1.5-3.7 3.5-7.2 3.7-3.3.5-7 2-8.5 3.3-1.8 1.7 10.2 2.2 34.2 1.7 35.8-.7 45 1 41.3 7.3-.8 1.2-18.3 2-39 1.7-38-.7-66.5-6-94-17.5-5-2-9.8-3.2-10.5-2.7-.5.7 4.2 5.5 10.7 10.7 23.8 19.8 40 35.8 44.5 44.5 8.5 16-1 14.8-21.5-2.5-6.2-5.5-17.5-14.2-25-20-8.7-6.5-16.5-15.5-21.5-24.2-4.7-8.3-11-15.8-15.2-18-13.5-6.8-87.8-4-96.3 3.7-1 1.3 4.8 4.5 13 7.5 16 5.8 30.8 17 52.5 40.5 7.3 7.8 17 16.8 21.8 19.8 4.5 3.2 13 13 19 21.7 6 9 13.5 17.8 16.7 20 5.5 3.5 7.3 9 3.5 11.5-1 .5-7.5-.7-14.2-3.2-14.3-4.8-39.5-23.3-52-37.8-4.5-5.5-12.3-11.5-17-13.5-13-5.5-20.8-12.5-38.8-35.5-9-11.5-17.7-21-19.5-21-1.5 0-14.2 5.5-27.7 12-13.8 6.5-27.8 13.3-31 14.5-5.8 2.5-5.3 3 10.5 12.3 13.7 8 16 10.2 14.2 14-6 11-29.5 7.7-47.2-6.5-6.3-5-12.5-8.5-14-8-1.5.7-9 2.5-17 4-7.8 1.7-14.8 4-15.3 5-.7 1.2 3.3 3.2 8.8 5 10.2 3 11.2 7.7 1.5 7.7-3 0-12-2-19.8-4.5-11.7-3.7-17.7-4-31.2-2.5-33.8 4.5-43.3 7.3-52.5 15.3-8.3 7.2-23.3 27.7-23.3 31.7 0 1.5 11.3 1.5 20.8.3 1-.3 1.2-4.3.2-9-.7-4.8-.7-10.5 0-12.8 1.5-3.7 2-3.7 7.8 0 5.7 3.8 6.5 3.8 15.2-2.2 11.5-7.8 21-8.3 22.8-1.3.7 3 4.5 6.8 8.2 8.8 7.5 3.7 11 14.5 7.3 21.7-1.3 2.3-2.3 6.5-2.3 9.3 0 6.2-11.5 9.7-28.7 9-18.5-.8-18.3-.8-22.5-8.8-3-5.5-5.5-7.5-10.8-7.5-10 .3-27.2 8.8-30.5 15.5-1.7 3-8.2 11-14.5 17.5-6.2 6.5-11 12.5-10.2 13.3.7.5 12 2.5 25 4.2 21 2.5 25 2.5 34.2-1.2 13.5-5.3 25.5-5.5 25.5-.5 0 2.2-3.5 4.2-10 5.2-11.2 1.8-11 4.8.8 7.3 4.2 1 14.2 5 21.7 8.7 7.5 3.8 18.3 7.5 23.8 8.3 14.5 2.2 23.7 13.2 23.7 28 0 19.7-11 17.2-24.2-5.5-3.3-5.8-9-11.5-12.8-13-3.7-1.5-10.5-5.5-15.2-9-8.8-6.3-25.5-12.3-42.3-15l-9.2-1.8 11.2 10.8c6.3 5.7 17.5 16.2 25.3 23.2 12 11.3 27 31.5 55.2 74.8 3.8 5.7 7.8 14.2 8.5 18.7 2.3 11.3-3.7 10.8-17.5-2-6-5.5-12-10-13.2-10-4.5 0-17.8-15.2-33.3-37.5-8.2-12.2-19.2-25.5-24.2-29.2-4.8-3.8-13.3-13.8-18.8-22.3-14.5-23.2-26.2-32.7-42.5-34.7-7.2-1-18.7-1.3-25.2-.8l-12.3.8 20.5 13.5c13.8 9 23.8 18 30.8 27.5 5.7 7.7 13.5 17.7 17.5 22.5 3.7 4.5 6.5 9.7 5.7 11.7-.7 2 .3 3.5 2 3.5 3 0 11.5 10 11.5 13.8 0 .7-3 1.2-6.5 1.2-5.2 0-15-8.2-45.8-39.5-37.2-37.7-39.5-39.5-53.2-42.7l-14-3.5-16.5 9c-9.5 5.2-29 12.5-45.8 17-16.2 4.2-29.7 8-30.2 8.5-.5.2 7 7.7 16.7 16.5 9.5 8.7 16.8 16.7 16.3 17.7-.8 1-7.5 2-15.3 2-13.5 0-14.5-.5-26.5-12.5L593 464.8l-22.5 9c-15.5 6.5-26.3 9-35.3 9-12.5 0-13.5.5-27.7 15.2l-14.8 15 15.8-1.5c9.7-1.2 15.5-.7 15.5.8 0 4-7.5 7-21.8 8.5-16.2 1.7-25.7 6.7-43 22-7.5 6.7-14.7 12.2-15.7 12.2-4.3 0-33 31.3-40.3 44.3-3.7 6.2 27.8-7.8 44.5-20 16.8-12.3 40.8-24 48.8-24.3 7.7 0 22.5 5.3 22.5 8.3 0 3-38 32.7-49.8 39-3 1.7-13.2 4.5-22.2 6.2l-16.8 3 17.5 9.3c24.5 13.2 28.5 16.2 23.8 19.2-14 8.8-40 4-61.5-11.2-6.8-4.8-13-8.8-14-8.8s-6.5 9-12 20-14 24.5-18.8 29.8l-8.7 9.7 11.2 1.8c6.3.7 14.8.7 18.8 0 9-2 10.2 3.5 2.7 11-8.2 8.2-23.2 11.5-39.2 8.5l-14-2.5-6.5 8.7c-3.8 5-16 19-27.5 31.3-25.3 27-30 36.7-38 76.7-1.3 6.3-5 20.8-8.5 32.3C252 859 249 869 249 869.5c0 4.5 33-34.7 38.5-45.5 9.2-18 30.7-43.5 48.2-56.5 8-6 21.3-18 29.3-26.7 8-8.8 15.7-15.8 16.7-15.8 6.5 0-1.7 36-9 40.5-1.7 1-7.5 8.3-12.7 16.3-21.8 32.2-54.5 66.2-79.8 82.7-29 19-39.7 32-44.7 54-1.5 6.3-.3 5.5 13.2-8.2 19.8-20.3 23.3-20 17.5.5-2.5 9.7-4.5 11-9 6.5-1.7-1.8-5.2.5-12 8.2-12.5 14.5-15.5 21-16.7 36.3-1.5 15.5 1 15 9.5-2.5 3.5-7.3 8.5-17 11-21.8 2.7-4.7 5.5-9.7 6-11.2s2-1.5 4 .5c2.5 2.2 1.5 5.7-5 17-4.5 7.7-7.5 14.5-7 15.2.7.5 7.2-2.2 14.7-6.2 7.5-4 19.3-8.8 26-10.5 7-1.8 16.3-5.3 20.5-8 7.3-4.3 8.5-4.3 9.8-.8 2.5 6.8-4.3 21.8-14.3 31.5-9.7 9.5-24.7 16.5-49.7 23.5-24.8 6.8-40.5 23-46 47.5l-1.8 7 10.8-7.7c16-11.8 15.2-4.3-1 10.7-17.5 16.3-27.5 38.8-22 49.3 3.7 7 16.7 41.7 23 61.7 2.5 8.5 5.7 15.5 7 15.5 2.7 0 3.7-17 2.7-43.2-1-22.5 10-73 15.5-71 5.3 1.7 5.3 79 .3 101.2-2.5 10-5.3 18.8-6.5 19.5-7.3 4.5 1.5 23.3 21.2 45.5 8 9 14 20 23 43l12.3 31 5.5-15c3.2-8 5.7-17.5 5.7-21 .3-6-.5-6.2-9.7-5.5-11.3 1.3-13.5-3-5.3-10.5 4.5-4 4.5-5 1.3-12.7-4.8-11.8-4.5-22.3 1.5-33.8 3.7-7.2 6.7-10 10.7-10 3.3 0 7-1.2 8.8-3 3.7-3.7 19.5 1.3 26.2 8.3 2.5 2.7 5.5 4.7 6.8 4.7 3.2 0 4.2 10.3 1.7 18.8-1.5 4.2-5.2 11.2-8.5 15.7-6 8-6 8.5-1.7 11.8 7 5 .2 11.7-11 10.7l-8.5-.7-8.8 25c-12.2 35.2-18.2 58-18.2 69.7 0 8.5.5 9.5 3.2 6.5 6.5-7.2 31.8-49.5 31.8-53 0-8 15.2-27 29.2-36.5 8-5.5 20-16.7 26.5-25.2 6.8-8.3 13-15.3 14-15.3 1.3 0 3.8 1.8 5.5 4 2.8 3.5 2.3 6-3.5 17-3.7 7-8.5 18.5-10.5 25.3-2.7 9.2-8 17.5-19.7 30.5-8.8 9.7-19 23.2-22.8 30-3.7 6.7-14.7 18.7-24.7 27.2-24.3 20.5-24.8 22.3-18.8 49.8 2.8 12.5 5 27.7 5.3 34.5 0 6.5.7 11.7 1.7 11.7s8-5.2 15.5-11.7l13.5-11.5.8 10.5c1 13.5-3.8 21-20 31-12 7.5-12.5 8.2-11.3 17.5 2.8 19.5-5.5 59.2-16.2 79.2l-4.5 8.8 12 11.2c6.7 6.3 18.7 21.5 26.7 33.8 19.8 30 49.8 60.7 69 71.2 8.3 4.3 15.5 7.5 16.3 6.8.5-.5 1.2-10 1.7-21 .5-19.5.3-20-10.2-35.8-5.8-9-16-21.5-22.5-28.2-18-17.8-25-33.8-28-63.3-3-31.7-3-46-.3-46 7 0 16 13.3 24.3 35 4.7 13 13 31 18.5 40 5.2 9 14 25 19 35.8l9.2 19.5 7.5-13.3c4.3-7.2 7.8-16.5 7.8-20.7 0-14.5-9-57.5-13.5-65-2.5-4-5.3-13.5-6.3-20.5-1.5-11-1-13.3 2.3-13.3 2 0 5.5 3.3 7.5 7.3 2.2 4 6.7 10.7 10.5 15 12.5 14.7 17.2 50.2 10 76.5-1.8 7-7 19-11.5 27s-7.5 15-7 15.7c.7.5 7-4 14.2-10.5 17.3-15.5 23.5-13.5 18 6-2.7 9.8-10 16.5-24.2 22.8l-10.3 4.7-2 24.5c-2.7 36.3-1.7 48.3 5 60 5 8.8 8 10.8 18 13.3 6.5 1.7 13.5 4.2 15.3 5.7 4.7 4 5.7 1.5 2.7-9-4-14.2 1.3-18.2 6.5-5 2.3 5.3 5.3 12.5 7 15.5 5 10.5 31.3 32.5 47.8 40.5 19 9 21.5 9.3 14.5 1.8-4.8-5-9-13.3-22-44.3-2.5-6.2-8-15-12.3-19.7-5.5-6.3-8-12.8-10-25-1.7-9-2-16.8-1-17.3 4.3-1.7 14.5 7.8 19.3 17.8 2.7 5.7 6.2 16.2 7.5 23 5.5 26.7 16 49.2 29.2 62 27 26 38.5 34.5 55.3 40.7 9.5 3.3 20.7 8.3 25.2 11 4.5 2.8 8.3 4 8 3-.2-2.7-10-19-23.7-38.8-10-14.4-13.3-21.4-14.5-31.9-2.3-17.3-8.8-42.8-12-46.6-1.3-1.4-6-3.7-10.3-4.5-22.5-4.5-26.5-6.5-31.5-14.7-8.2-13.3-7.2-15 7.8-13 8 1.2 16.5 4.2 21.3 8 4.2 3.2 8.4 6 9.2 6 7 0-12.5-31.8-22.8-37.3-27.4-15-45.7-30.7-51.2-44.5-2-5.2-6.2-15.7-9.5-23.2-3-7.5-6.2-16.8-6.7-20.5-1.3-6.5-.8-7 6.5-7 4.2 0 7.7 1 7.7 2.2 0 1.3 2.5 2.8 5.3 3.3 7.5 1 17.2 14 12.7 16.7-2.7 1.5-1.5 5 4.8 15.5 11.5 19 23 33.5 24.2 30.3 1.3-4-3.5-11.5-15.7-25.5-17.3-19.5-14.5-28.5 3-9.8 12.2 13 20.7 27 20.7 34 0 3 1.3 6.3 2.5 7 4.8 3 2.3-7.7-5.2-22.5-9.3-17.7-12.5-29.7-10.5-39.2 2-10 8.5-9 19 3 20.2 22.3 26.7 49.3 17 71l-5.3 12 6 11.5c6 12 14 44 20 78.8 3.3 17.5 10 34 13.3 31 .5-.8 1.5-9 1.7-18.5.5-12.8 2.5-20.3 7.8-30.8 3.7-7.5 10-23.2 13.7-34.8 3.8-11.7 8-21.7 9.8-22.2 6.2-2 11.2 17.5 11.2 43.3.3 27-.5 29.2-20 61.5-4.7 7.7-8.5 15.7-8.5 17.5 0 2 5.3 14 11.5 26.5 9.8 19.5 14.8 26.2 31.5 42 11 10.2 21 18.7 22.3 18.7 3 0 2.7-4.2-.3-6.2-1.5-1-6.5-9.3-11.2-18.5-4.5-9.3-13.3-22.8-19.5-30-12.5-14.5-21-29.3-18.8-31.8 1-.7 5.5.8 10 3.5 17.5 10.8 41.3 41.8 49.8 64.3 7 19 11.2 23.2 31.2 31l17.5 7-3-9c-4.5-12.3-4.5-27.8-.2-27.8 7.7 0 21.7 22.8 21.7 35 0 3.5 3 6.3 9.5 9 23.3 10 42.3 19.5 54.8 27.5 28 18 75.7 38.8 117 51.3 12.7 3.7 14.7 6 11.5 12-3.8 6.7-11 6.5-25.8-1.3zm-427.3-72c13.8-3.7 28.1-12.2 37.8-22.7 6.5-7 5.8-7.3-8.7-3.5-5.5 1.5-14.5 2.5-20.3 2.2-13-.2-21.7 3-36.5 14.5-8.2 6.3-11 9.5-8.7 11 4.7 3 21.7 2.3 36.5-1.5zm250.2-35c0-2-1-4.5-2.5-5.2-1.2-.8-2.5.7-2.5 3.5 0 3 1.3 5.2 2.5 5.2 1.5 0 2.5-1.5 2.5-3.5zm-230-10.2c0-.5-5.2-3.3-11.5-6.3-10.7-4.5-22-12-46-29.7l-8.7-6.5 9.5 11.7c5.2 6.5 14.7 14.8 20.7 18.3 16 9.2 36 16.2 36 12.5zm124.8-11.3c-23-27.2-28.3-32.2-42-39.7-25.3-13.3-26.3-10.5-5 13 19.7 21.7 39 35.2 53.2 36.5 1 .2-1.7-4.3-6.2-9.8zm-118.8 1c-2.5-2-9.2-5.7-14.7-8.2-5.5-2.5-14.5-8.3-20-12.8-11.3-9-26.8-17.5-31.8-17.5-1.7.3.3 2 4.3 4.3 4.2 2 11 7.2 15.2 11.2 4.3 4 17.3 12.3 28.8 18.3 20.5 10.5 28 12.7 18.2 4.7zm-95.2-90.7c16-4 31-8.5 33.5-10 8.5-4.8-17.8-3-29.5 2-6 2.7-17.5 6-25.3 7.7-14.2 2.8-22 7.5-12.5 7.5 2.8 0 18-3.2 33.8-7.2zm186.2-.8c1.3-1.7 7-12.5 13-24 7.5-15 10.5-23.7 10.8-32.5.5-13.7-2.5-30.5-5.5-30.5-1 0-4 7-6.3 15.8-2.5 8.5-7.7 21.2-11.7 28.2-6 10.8-7.3 15.8-7.3 29.5 0 16 1.8 19.8 7 13.5zm-224.5-37.5c5-3 7.5-5.7 5.8-6.2-3-1-20.8 8.2-20.8 10.7s7 .5 15-4.5zm-90-34.7c3-1.8 2.8-2-1.2-2.3-7.8 0-16.3 2.8-16.3 5.3s11.3.5 17.5-3zm-23.5-6c4.5-3.5 4.3-3.5-3.2-3.8-7.8 0-10.3 2.3-6.5 5.8 2.5 2.5 4.2 2.2 9.7-2zm211-6.3c-3.7-9.2-8.2-10-4.7-1 3.2 9 5 11.5 6.5 10 .7-.7 0-4.7-1.8-9zm67.5 1.3c0-2.3-20.5-11.5-22-10-2.7 2.7 9.5 11.2 16 11.2 3.3 0 6-.5 6-1.2zm-250-4.8c0-2.7-16.7-13.5-23-15-11-2.5-8.2 2.8 5 9.5 11 6 18 8 18 5.5zm256.3-55.7c3.5-8.5 3.5-10.3-1.3-24.8-3-8.5-9-19.7-13.7-25l-8.5-9.7-.3 7c0 3.7 3.3 12.7 7.5 20 4.5 8 8 18.7 9 27.5 1 7.7 2 14.2 2.5 14.2s2.8-4.2 4.8-9.2zm-37.3-3.8c-3.5-4.5-12-17.5-19-28.5-12.5-20.5-23-32.7-19-22.2 1 2.7 4 10.7 6.8 17.5 5.5 14.5 17.2 29.7 28.2 36.5 10.5 6.2 10.8 6 3-3.3zM443.2 1654c3.7-3.2 6.5-6.5 5.7-7.2-.7-.8-5.2 2-10 6-4.7 4-7.2 7.2-5.7 7.2 1.7 0 6.2-2.7 10-6zm-60.5-44.5c-9.3-15.2-15.3-29-18.5-42.5-1.5-6.7-4.3-15.7-6.3-20l-3.5-8.2 1.3 11.2c2.2 21.5 10.5 44 20.7 57.3 12.3 15.5 15 16.5 6.3 2.2zm5.7-12.5c-11.2-20.2-16.2-26.7-12.2-16.2 3 7.5 19.5 34.2 21.2 34.2.8 0-3.2-8.2-9-18zm-204.5 9.3c-2.2-2-7.7-4.3-12.5-5.3l-8.7-1.5 6.2 5.3c3.5 2.7 9 5.2 12.5 5.2 5.3 0 5.8-.5 2.5-3.7zm253.8-50c-3.5-11.8-3.5-12-2.5-2.5 2.2 17 4.7 25.7 5.5 20 .5-2.8-1-10.5-3-17.5zm-237.5-56c-.8-1.5-9-7.8-18.3-14l-16.7-11.8 9.7 10c5.5 5.8 13.3 12 17.5 14 9.3 4.5 9.8 4.8 7.8 1.8zm-46.5-30.8c-10.5-18-11.3-18.7-29.5-38.5-14.5-16-15.5-16.5-12-8 2.2 5.3 5 11 6 13 2.2 4 41 46.5 42.2 46.5.5 0-2.5-6-6.7-13zm167-6c3.5-3.5 5.7-7 5-7.7-1.8-1.5-16.5 9.5-16.5 12.5-.5 3.7 5.2 1.5 11.5-4.8zm-34.5-66.2c-4.5-17.8-5-25.5-4-51.5 2-43.8-4-64.3-30.3-104-9-13.3-14.2-18.5-23.7-23.3-8.5-4.5-11.8-7.5-11.3-10.5.5-2.5 2.8-4 5.3-3.5 4.2.8 4.2.5.2-7.5-2.2-4.5-10.7-27.2-18.7-50.7-10.8-32-14.8-41-15.8-36.3-.7 3.5-3.7 16.5-6.5 28.8-8.5 36.7-15 69.5-15 76.7 0 17.3 12.8 70.8 20.8 86.5 9.5 18.3 14.2 22.3 14.2 11.3.3-13.3 6.5-34.5 10.3-34.5 6.2 0 10.2 18.2 9 39.5l-1.3 19.2 12.3 13.3c7 7 15.2 18.2 18.5 24.5 6 11.5 37.7 46.5 40 44.2.7-.7-1-10.7-4-22.2zm48.2-66c6-12 3.8-9.8-9.2 8.7-8 11.5-8.3 12.8-2.5 7.5 3.7-3.5 9-10.7 11.7-16.2zm3.5-22.5c3.5-6.8 12.3-18.5 19.3-25.5 13.2-13.8 13.7-15.8 2-9.8-10 5.3-21.8 19.5-25.3 30.8-1.7 5.2-4.5 11.2-6.2 13.2-1.8 2-6.3 8.8-9.8 15l-6.7 11.3 10.2-11.3c5.5-6.2 13-16.7 16.5-23.7zm-124 2.2c0-14.5-3.5-16.5-6.2-3.5-1.5 6.3 1.7 17.5 5 17.5.7 0 1.2-6.2 1.2-14zm165-39c-.2-5.2-.5-5.2-4.2 1.8-2.3 4.2-9.5 13.2-16 20.5-6.8 7-12.3 14-12.3 15.5s7.3-5.3 16.3-14.8c10.5-11.2 16.2-19.2 16.2-23zm-313.8 3.3c-2.4-2-34.9-15.3-37.9-15.3-5 0 6.2 7 18.7 11.8 15.3 5.7 23 7.2 19.3 3.5zm74.5-13c6.5-1.5 11.2-3.5 10.5-4.3-3.5-3.7-25-7.2-32.3-5.5-4.2 1.3-11 2.8-15 3.8-5.2 1-6.5 2.2-4.5 4.2 3.3 3.3 20 6.8 25.5 5.5 2-.5 9.3-2 15.8-3.7zm178.5-32.5c4.2-12 4-28.5-.3-32-3-2.5-4.5-1.8-7.5 4.5-4.2 8-5 17.2-2.5 30 2 9.7 6.3 8.7 10.3-2.5zm-200.8-14c-9-10.8-18.2-22.8-20.2-27-4.3-7.8-9.3-13.8-12.3-13.8-.7 0-.5 1.5.8 3.3 1.5 1.5 3.2 7 4.2 11.7 2.5 14.5 30 43.5 42.3 44.8 1 .2-5.5-8.5-14.8-19zm216.5 7.7c5-8.7 5-19.5 0-14.5-2 2-7.7 23.5-6.2 23.5.5 0 3.2-4 6.2-9zm-219.7-28c-1.3-2.5-4.5-6.2-7-8.2-3-2.5-2.8-1.3 1.5 4.7 6 8.8 9.5 10.8 5.5 3.5zm42.5-56.5c-5-8-12-13-14.5-10.5-1.8 1.8 4.2 12 11.5 19.8 8.5 9.2 10.5 3 3-9.3zm82.5-14.7c.2-4.5.2-13.5-.3-20.5-1-20.3-4.5-3.8-4.5 21.2 0 15.3.5 19.3 2 14.3 1.3-3.8 2.5-10.5 2.8-15zM123.3 1005c-4.5-5.5-9-10-10-10s-6-6.5-11-14.2c-5-8-13-18.8-18-24-7.7-7.8-8.5-9.8-5.5-11.8 2-1.2 2.8-2.5 1.3-2.7-8.8-.8-13.3-2.8-18-8.3-7.3-8.5-8.5-8.2-5.3 1.5 3.5 10 66.8 79.5 72.3 79.5 1.5 0-1.3-4.5-5.8-10zm6.3-8.2c-9.3-12-25.8-30-25.8-28.3 0 3.3 20 28.8 24.3 31.3 6.5 3.7 6.5 3.5 1.5-3zM269.1 976c12.2-3.7 32.2-16.7 32.2-21.2 0-1.5-11 3.2-24.2 10.2-23.8 12.8-35.3 20.3-24.5 16.3 2.7-1 10.2-3.3 16.5-5.3zm0-15.2c17.7-9.5 21.5-13.8 7-7.5-9.3 3.7-29.3 16.7-26 16.7 1 0 9.5-4.2 19-9.2zm-45.3-9c0-6-.7-7-2.5-4.3-3.2 5-3.2 15.8 0 13.8 1.5-.8 2.5-5.3 2.5-9.5zm98.3-134c13-12.3 26.7-30 26.7-34 0-3-28 25.5-39.2 40-13 16.5-9.5 14.7 12.5-6zm-17-.8c5.5-7 17.2-19.7 26.2-28.5 9-8.5 15.5-16.2 14.8-17-2.5-2.5-25.8 17.3-36.5 31-20.8 26.5-21.3 27.5-17.8 27.5 1.8 0 7.8-5.7 13.3-13zm-57-7.5c-.5-1.7-2.5-7.5-4.5-12.5-3-8.7-7.3-12.7-7.3-7 0 5 8.3 22.5 10.5 22.5 1.5 0 2-1.5 1.3-3zm123.2-117c0-3.2-11-5.7-17.2-3.7-9 2.7-5.8 6.2 6 6.2 6.2 0 11.2-1 11.2-2.5zm-63.7-31.2c2-6.8 6.2-20.3 9.7-30 7.3-20 8.5-35 2.8-37.3-4.5-1.7-17.5 22.5-20 37.5-1.5 9-1.3 9.3 2.2 5.3 2-2.8 4.3-9 5.3-14.3 1.7-10.5 7.2-19.7 10-17 1.7 1.5-2.3 17.8-10 40.8-2 5.5-4 16.7-4.8 25-.5 8.2-.5 12.2.3 8.7.5-3.5 2.7-11.7 4.5-18.7zm144.7-26.5c-2.2-4-31.2-17.3-37.2-17.3-4.5.3-4.3 1 2.2 6 10.5 8.8 39.3 17.8 35 11.3zm8.3-37.5c8.5-3.3 34-22.5 32-24.3-.8-.7-9.5 4.3-19.3 10.8-26 17.5-27.5 19.2-12.7 13.5zm1-15c4.7-4 5-4.5 1-2.5-8.5 4.2-12.8 7.7-9.8 7.7 1.8 0 5.5-2.2 8.8-5.2zM391.3 515c0-5-1.2-7.5-3.5-7.5-3 0-3.2 1.5-1.2 7.5 1.5 4.3 3.2 7.5 3.7 7.5s1-3.2 1-7.5zm496 .8c-7.7-12.5-31-43.3-32.2-43.3-.8 0 4.5 8.3 11.7 18.3 19 26.7 22.8 31.7 24 31.7.5 0-1-3-3.5-6.7zm-10-31.3c-5-9-14.5-19.7-21.5-24.7-6-4.3-4.2-1.5 6.8 10.7 15.2 17 18 19.5 14.7 14zM623.6 476c-8.3-9-19.8-17-19.8-13.7 0 4.2 17.3 20.2 21.8 20.2 3.2 0 3-1.2-2-6.5zm161-16.2c-5-8.5-23.3-25.5-25.5-23.5-1 1.2 27 31.2 29.2 31.2.5 0-1.2-3.5-3.7-7.7zm130.7-9.5c-8-7.8-8.5-4.5-1 7.2 4.5 7.3 5.8 8 6.5 4 .5-2.7-1.7-7.2-5.5-11.2zm-339.5-39.5c7.3-3.5 20.3-12.8 28.5-20.5 24-22 57-56 57-58.5 0-1.3 4.5-7.8 10.3-14.5l10-12-14.5 8.5c-30.3 17.5-41 26.5-57.3 48.2-10.2 13.8-24.2 28-37.5 38.8-11.5 9.2-21 17.5-21 18.2 0 2 10-1.2 24.5-8.2zm74.5-8.3c-2.7-8.7-3.5-9.7-3.7-4.7-.3 7.7 5.5 25 6.5 19.7.5-2-.8-8.7-2.8-15zm45.3-24.2c15-24 23.7-41 22.5-42.3-1.5-1.7-14.3 16.5-14.3 20.5 0 1.8-5 9.8-11 18-11.2 15.3-19 28.5-19 32.3.3 3 11.5-11.8 21.8-28.5zm6 12.5c3.7-4.5 12.2-22 12.2-25 0-2-13.2 16.2-17.2 23.7-3.5 6.5 0 7.3 5 1.3zM884.8 366c7-2.7 4.3-5.5-6-6.5-14-1.2-13.2 2.3 1.8 7.8.2.2 2-.5 4.2-1.3zm-107.7-16.5c2-6 4.5-13 5.7-15.7 1.3-3.5.3-3-3.7 1.7-5 6.3-10.3 24.5-7 24.5.7 0 3-4.7 5-10.5zm114.5-6c5.2-6.2-4.8-4-12.3 2.8l-6.7 6.5 8-3c4.2-1.5 9.2-4.3 11-6.3zm-322.8-4.7c0-5.3-13.2-25-14.5-21.5-.5 1.5 1.5 7.7 4.5 14 5.5 11.2 10 14.7 10 7.5zm600-4.5c0-.3-6-6.3-13-13-7.2-7-10.2-9-7-5 8 9.7 20 20.5 20 18zm2.5-14.3c-2.5-4.7-10-10-14-10-1.7 0 14 14.5 16 15 .3 0-.5-2.2-2-5zm-152.5-18.5c0-.5-5.7-4.5-12.5-8.7-19.5-12-28-9.8-10.5 2.7 7.8 5.5 23 9.5 23 6zm115.8-2.2c-3.3-5.3-43.8-41.8-46.5-41.8-2.8 0 7.5 14.3 19.2 27.3 4.3 4.5 12.3 10.5 17.8 13 12 5.5 12 5.5 9.5 1.5zm-255.3-47.5c8.5-16.3 13.3-27.5 17.3-41.3 1.5-4.5 5.7-13.5 9.7-20 4-6.5 9-14.5 10.8-18 4.2-7.5 7.5-22.5 4.7-22.5-1 0-8.2 13.3-16 29.5-8 16-16.5 33.3-19.2 38-9.3 16-17.8 35.8-19.3 44.5-2.5 12.5 2.5 8.5 12-10.2zm-15.5-2.3c3-8.7 12.3-28 20.3-42.7 8.2-14.8 14.7-27.5 14.7-28 0-3-27.7 29.2-31.5 36.5-6.7 13.2-14.2 49.7-10 49.7.5 0 3.5-7 6.5-15.5zm84.8-44.5c0-12.7-4.5-4-6 11.8-1.3 12-1.3 12 2.2 4.5 2.3-4 3.8-11.5 3.8-16.3zm98 10.5c1.7-5 3-10 2.7-11.2-.7-3 11-25 18.5-34.5 4.5-5.8 3-4.8-4.7 3-9 9.2-12.5 15.5-17.8 32-7.2 23-7.5 23.5-4.2 21.5 1.2-.8 3.7-5.5 5.5-10.8zm37 3.5c6.2-4.7 13.7-11 16.5-14.2l5-5.5-10.5 5.7c-10.3 5.8-28.8 22.5-24.8 22.5 1.3 0 7.3-3.7 13.8-8.5zm-21-10c8.2-12.5 17.7-36.5 14.2-36.5-6.2.3-30.5 50-24.5 50 .8 0 5.3-6 10.3-13.5zm-23.8-86.5c1.5-2.7 1.8-5 .5-5-3.2 0-12.5 13.8-14.5 21.5-1.5 7-1.2 6.8 4.8-2 3.5-5.2 7.7-11.5 9.2-14.5z"/><path id="p10s8wxlff" fill-rule="evenodd" class="s0" d="M926 1650.8c-7.8-1.3-8.5-3.3-3.8-7.8 1.5-1.7 6.5-12.5 10.8-23.5 4.2-11.2 8.8-20.7 10-21.2 1.5-.5 6.2 9.2 10.8 21.7 8.9 23.8 12.7 29 18.9 26.5 4.5-1.7 5.5-33.7 1-38.2-4-4-.5-8.3 6.5-8.3 4.8 0 7 2.3 9.8 8.8 2 4.7 4.7 8.7 5.7 8.7 1.3 0 3.8-4 5.5-8.7 2.5-7.3 4.3-8.8 10.3-8.8 8.7 0 11.2 3.3 6.2 7.5-5.5 4.5-5 31.8.5 38 2.3 2.5 3 4.5 1.8 4.8-1.3 0-6 .5-10.5.7-9 1-13.3-2.7-7.8-7 3.5-2.7 5-19 1.8-19-1 0-2.5 2.8-3.5 6.3-2 8.2-5 8-9.8-1.3-2.2-4-4.5-7.5-5-7.5-3 0-.7 17.5 2.8 21 2 2.3 3.2 4.8 2.7 5.8-.7 1.2-11 1.7-23 1.2-20.5-.7-21.5-1-17.7-5.2 5-5.5 3-7.8-7.8-7.8-8.5 0-10.2 2-5.5 6.8 2.8 2.7 1 8.5-2.2 8-1-.3-4.8-1-8.5-1.5zm20.5-25c0-4.8-4.8-13.8-5-9.5 0 1.5-.8 5-1.5 8.2-1.3 4-.5 5.5 2.5 5.5 2.2 0 4-2 4-4.2z"/><path id="pw5fan30b" class="s0" d="M1035 1649.8c-7.3-1.5-6.8-2.3 5.3-6 3.2-1 3.7-4.5 3.2-18-.8-16.5-1-17-7.8-17.8-13.4-1.5-5.5-6.7 11.8-7.5 15.3-.7 16.8-.2 16 3.8-.5 3-2.8 4.2-6.5 3.7-5.3-.7-5.5 0-5.5 18 0 18.3.2 19 5.7 18.3 3.3-.3 5.5.7 5.5 3 0 3.7-15 5.2-27.7 2.5z"/><path id="pgyKrpQRo" class="s0" d="M1093.5 1650.8c-16.5-1-22-3.8-12-6.5 4.3-1 5-3.5 5-18 0-14.8-.5-17-5-18-9.3-2.5-3.5-7 9.8-7.8 11.4-.7 12.9-.2 12.2 3.8-.5 2.7-2.8 4.2-5.3 3.7-3.7-.5-4.2 1.8-4.2 18.3 0 16.7.5 18.7 4.8 18.7 8.2 0 12.7-2.7 12.7-7.7 0-3 1.8-4.8 4.5-4.8 3.8 0 4.5 1.5 3.5 8.3-1 7.2-4.7 12.5-8 11.2-.7-.2-8.8-.7-18-1.2z"/><path id="p13Re1MZG5" class="s0" d="M1134.8 1649c-1.8-2.8 4.2-6.3 8.5-4.8 2.5 1 3.2-2.7 3.2-17.7 0-18.5-.2-19-6.2-19-4 0-6.3-1.5-6.3-3.8 0-3 3.8-3.7 17.8-3.7 15.2 0 17.5.5 16.7 4.2-.5 2.8-3.2 4.5-7 4.5-6 0-6.2.5-6.2 17.5 0 17.3 0 17.5 7 18.3 4 .5 6.7 2 6.2 3.5-1 3-32 4.2-33.7 1z"/><path id="pLYOPg7zQ" fill-rule="evenodd" class="s0" d="M1180 1649.5c-.8-1.3 0-4 2-6.3 1.8-2 6.8-12.9 11-23.9 4.3-11.3 8.8-20.6 10-21.1 1.3-.5 6 9.1 10.8 21.3 4.7 12 10.2 23.3 11.9 25 6 6 1.8 7.2-17.7 5.7-1.5-.2-1.3-1.5.5-3.2 5.7-5.8 3.2-9.5-5.8-9.5-8.5 0-11.5 3-6 6.2 1.3 1 2 3 1.8 4.3-1.3 3.5-16.5 4.7-18.5 1.5zm26.5-24.3c0-6.5-4-8.7-6-3.7-2.5 6.3-1.8 8.5 2.2 8.5 2 0 3.8-2.3 3.8-4.8z"/><path id="pjZu5gnPZ" class="s0" d="M1234.8 1649c-1-1.3.2-3.5 2.5-5.3 3.2-2.2 4.2-7 4.2-18.7 0-13.5-.7-15.8-5-16.8-9.2-2.5-3.5-7 9.5-7.7 10.8-.8 13 0 13 3.3 0 2.2-2.2 4.7-5 5.5-4.2 1.2-5 3.5-5 15.4 0 7.8 1 15.6 2.3 17.6 3 4.7 18 1.2 17.2-4.3-.5-2.3 1.3-4.5 3.8-5 3.5-.8 4.2 1 4.2 8v9l-11.7.2c-6.8.3-15.8.5-20.3.8-4.7 0-9-.8-9.7-2z"/><path id="p13NoBTkSh" fill-rule="evenodd" class="s0" d="M1287.5 1650.3c-2.3-2.5-.8-7.8 2.3-7 2 .2 3.2-4.5 3.7-16.5.8-15.5.3-17.3-4.5-18.5-11.5-3-2.8-7 17-7.8l20.5-.7v8.5c0 6.5-1.3 9-5 10-3.8 1-5 3.5-5 9 0 5.2-1.3 7.7-3.8 7.7-2 0-3.7-1.7-3.7-3.7s-1.8-3.8-4-3.8c-2.8 0-3.5 2-3 8.3.8 7 1.5 8 8.3 8 5.7 0 7.7-1.3 8.2-5.5 1.5-10 8-6.8 8 3.7v9.3h-19c-10.5 0-19.5-.5-20-1zm22.5-34c.8-2 3-3.8 5.3-3.8 2 0 3.7-1 3.7-2.5 0-2.7-7.5-3.2-13.5-1-5 2-5.3 11-.5 11 2 0 4-1.7 5-3.7z"/><path id="pJQDHLnm9" fill-rule="evenodd" class="s0" d="M873.5 1645.3c4.5-4 5.5-7.3 5.5-20 0-12.5-.8-15.5-5-17.8-9-4.7-2.8-7.5 17.8-7.5h19.7v8.5c0 6.3-1.3 8.8-5 9.8-3.8 1-5 3.5-5 10.2 0 10-3.3 11.8-7.5 4-4-7.5-7.5-6-7.5 3.3 0 7 1 8.2 5.3 8.2 3-.2 6 1.3 6.5 3 1 2.3-3 3-14.8 3-15.8-.2-15.8-.2-10-4.7zm19.5-26.5c.8-2 3.8-4.3 6.5-5.3 4-1.2 4.5-2 1.8-3.7-2-1.3-6-2.3-9-2.3-4.8 0-5.8 1.5-5.8 7.5 0 7.8 4 10.3 6.5 3.8z"/><path id="pSaQttJHw" class="s0" d="M930.5 1539.8c-7.5-8.8-8.8-23.3-2.8-34.5 4.3-8.8 8.1-10.3 24.3-10.3 10.5 0 12.3.8 11 4-.8 2.3-1.5 6.8-1.5 10 0 7.8-6.8 8-8 .5-.5-4.2-2.8-6-7.8-6.5-5.7-.7-7.5.5-10.5 8-4.2 10.3-3 19.3 3.8 25.3 6 5.5 14 2.7 16-5.3s7.5-6.5 8.5 2c1 8-7.3 14.5-18.5 14.5-6 0-9.8-2-14.5-7.7z"/><path id="p1HESUohcg" class="s0" d="M983 1543.5c-2.8-2.8-4-8.8-4-20.8 0-12.2-1-17.9-3.8-20.2-5.2-4.5-2.2-7.5 7.5-7.5 9.6 0 14.1 4.5 7.8 8-3 1.8-4 5.8-4 15.8 0 16.9 1.8 21.2 8.8 21.2 3.2 0 6.4-1.8 7.2-4 2.5-6.5 1.7-30.5-1-32.3-6-3.7-2.3-8.7 6.2-8.7s12.3 5 6.3 8.7c-1.3.8-2.5 9.3-2.5 18.8 0 19.7-3.3 25-16.3 25-4.5 0-10.2-1.8-12.2-4z"/><path id="pP7ONkAVw" class="s0" d="M1031.5 1542.8c0-4 1.5-5 5.8-4.5 5.2.5 5.5-.3 5.5-17 0-16-.5-17.5-5.8-18.8-11.8-2.7-6.5-6.2 10.3-7 15.4-.7 16.9-.2 16.2 3.8-.5 3-2.8 4.2-6.5 3.7-5.3-.7-5.5 0-5.5 18.3 0 18 .3 19 5.5 18.2 2.8-.5 5.8.8 6.3 2.5.7 2-2 3-9.8 3-5.7 0-13.3.8-16.3 1.5-4.7 1.3-5.7.5-5.7-3.7z"/><path id="p139fr2Gqp" class="s0" d="M1081.5 1537.5c0-10.8 5.8-14.3 8.8-5.3 1.9 6.8 10.7 9.3 15.4 4.5 5-5 2.8-8.2-10.5-13.9-10.2-4.5-11.2-5.8-11.2-13.8 0-10.8 5-14 21-14 11.5 0 11.5 0 11.5 8.8 0 9.7-6 12.2-8.8 3.5-1.2-3.8-3.5-4.8-8.2-4.3-9.8 1-9 9.5.7 12.8 10.8 3.4 16.3 8.9 16.3 16.7 0 10.3-7 15-22 15h-13z"/><path id="pMOEaR2fD" class="s0" d="M1149.5 1545.5c-11-.5-15.5-1.8-14.8-3.8.6-1.7 3.6-2.7 6.3-2.2 5.3.8 5.5-.3 5.5-18 0-18.5-.2-19-6.2-19-4 0-6.3-1.5-6.3-3.8 0-3 3.5-3.7 17.5-3.7 13.5 0 17.5.8 17.5 3.5 0 2.3-3 4-6.7 4.5-7 .8-7 1-7 18.3 0 17.2 0 17.4 7 18.2 6.2.8 9.2 4.3 5 6-1.3.5-9 .5-17.8 0z"/><path id="pqrnbuuxX" class="s0" d="M1180.5 1541.3c1-2 2.5-3.8 3.8-3.8 1 0 2-7.2 2-16.2-.3-12-1.3-16.8-4-18.5-5.3-3-1.8-7.8 5.5-7.8 4.7 0 7.7 3 13.4 13.3 12.6 21.7 12.6 21.7 12.6 7.5.2-10.5-.5-13.3-3.8-13.3-2.3 0-3.5-1.5-2.8-3 .5-2 5-3.2 10.6-3.2 5.5 0 9.9 1.2 10.7 3.2.5 1.5-.7 3-3 3-3.2 0-4 3.5-4 21.3 0 19-.5 21.2-4.7 21.2-3 0-7.3-5-12.5-15-4.5-8.2-8.5-15-9.3-15-.5 0-1 5.8-1 12.5 0 9.5 1 12.5 3.8 12.5 2 0 3.7 1.3 3.7 2.5 0 1.5-5 2.5-11.2 2.5-8.8 0-10.8-.7-9.8-3.7z"/><path id="p18ZYqn9Vn" fill-rule="evenodd" class="s0" d="M1235.3 1540.5c4.2-3.5 5.2-7.3 5.2-19.8 0-10.4-1.2-15.9-3.2-16.7-1.8-.8-3.3-3-3.3-5.3 0-3 3.8-3.7 20-3.7h20v8.5c0 6.5-1.2 8.8-5.2 9.8-4.5 1.2-5.3 2.7-4 8.9 1.5 6.5.7 7.8-3.3 7.8-2.7 0-5-1.8-5-3.8 0-2-1.7-3.7-3.7-3.7-2.8 0-3.8 2.7-3.8 9 0 8.8.3 8.8 9.5 8 7.5-.5 9.5-1.8 10-6.3 1.5-9.5 8-7 8 3v8.8h-23c-22.2-.3-23-.3-18.2-4.5zm22.2-29.3c.8-2 3.3-3.7 5.8-3.7 3 0 3.5-.8 1.5-2.8-4.5-4.5-14.5-1.7-15.3 4.8-1 6.2 5.5 7.7 8 1.7z"/><path id="pdCGK6i8p" fill-rule="evenodd" class="s0" d="M717.8 1352.3C704 1345 695 1336 689 1323.5c-5-10-5.2-15-5-87 0-46.7 1-79 2.8-83.2 6.7-18.3 30.7-33 56.7-34.8 15.5-1.2 18-.7 31.8 7 12.7 7.3 16 10.8 22 22.5l7.2 14.3.3 78.2c.5 69.8 0 79-3.8 86-14.5 26.3-57.2 39.5-83.2 25.8zm35-33.3c17-7.2 17.5-10.2 16.7-79-.2-33.7-1.7-64.7-3.2-69.2-3.5-10.5-18-16.8-30.3-12.8-16.2 5.3-15.7 3-15.7 76.5 0 59.5.5 67.8 4.5 75 4 7.3 11 12.3 17.5 12.8 1 .2 5.7-1.3 10.5-3.3z"/><path id="pQ8ODWt06" class="s0" d="M995.3 1355.3c-19.5-5-36.5-20.3-41-36.5-1.8-6.3-2.8-44-2.8-103v-93.3l6-1.5c3.3-.7 11.5-1 18.3-.5l12 .8.5 92.2c.5 91.3.5 92.3 6 98 11 11.8 35 9.8 40-3.2 1.2-3.3 2.2-46.5 2.2-95.8 0-88.7 0-89.7 5.3-91.2 5.7-2 29.7-2.3 31.5-.5 2.5 2.7.5 188-2.3 198.5-3 12.2-13 23.5-27 30.7-10.5 5.5-37.2 8.3-48.7 5.3z"/><path id="p10YdJKDZy" class="s0" d="M1090.5 1355c-.3-.8-.5-53.5-.5-117.5l.3-116.3h35l.2 31.3c.8 135 1.5 165 4.3 166.8 1.7.9 16.7 1.9 33.5 1.9 16.4 0 31.2.8 32.2 2 1 1 2.5 8.5 3 16.8l1 15-27 .2c-15 0-39.5.3-54.3.5-15 .3-27.5 0-27.7-.7z"/><path id="p118ZOltlZ" class="s0" d="M1359 1240v-117.5h36.3l-.1 74.5c0 40.8.5 91.8 1.3 113.3.7 21.5 1 41 .5 43.2-.8 3.3-4.3 4-19.3 4h-18.4z"/><path id="p1EfVgwktI" fill-rule="evenodd" class="s0" d="M1434.5 1355.5l-15.8-.8 1.6-234.4 33.7 1c55.3 1.5 70.3 7.2 80.5 31 3.7 9 4.7 17 4.7 37.5-.2 30.5-4.5 42.5-20.7 56.5l-10.3 8.5 16.8 49c9.2 27 16.2 49.7 15.5 50.7-.5 1-8.8 1.3-18 .5l-17-1.2-7.3-22.5c-4-12.3-10.7-33.3-15.2-46.3-8-23.8-8-23.8-17-24.5l-8.8-.8-1.7 15.3c-1 8.3-1.5 29.3-1.3 46.5.3 17.3-.7 32.3-1.7 33-1.3 1-9.3 1.5-18 1zm60.5-138.8c8.5-5.7 12.2-32.7 6.5-47.7-2.8-7.5-16.3-12.2-32.5-11l-11.3.8-.7 28.5c-.3 15.7 0 30.2.7 32.2 1.8 4.8 28.8 2.8 37.3-2.7z"/><path id="pQsBLONZK" class="s0" d="M1558 1313.8c-1-23.3-1.3-76-1-116.8l.8-74.5h124l-.8 18.3-.8 18-42.5 1.2-42.5 1.3-1.2 18.7c-.8 10.3-.8 23.3 0 28.8l1.3 10 32.7.7 33 .8.7 9.2c.5 5 .8 12.8.3 17.3l-.8 7.7-31 1c-17 .5-31.7 1.8-32.7 2.8-3 3-4.5 54.2-1.8 57 1.8 1.7 52.3 4.7 84 4.7 2.1 0 2.3 16.3.3 26.5l-1.5 7.3-19-.8c-10.5-.5-37.5.3-59.8 1.3l-40.2 2z"/><path id="pwVYxbzbM" fill-rule="evenodd" class="s0" d="M553.5 1249.5c-.3-58.3-.5-110.5-.8-116.3l-.4-10.7h34c41.5 0 60.2 4 72.2 15.7 11.7 11.5 16.5 29.5 15 57.8-1.8 29.8-6.3 40.5-21.5 50.8-14.5 9.5-19.3 11-43 13l-18.8 1.5-.7 47-.5 46.7h-35zm73-30.3c11.5-5.7 14.7-34.7 6-52.2-4-7.7-13.3-10.2-31-9l-11.3.8-.7 28.5c-.3 15.7 0 30.2.5 32 1.7 4.2 28 4.2 36.5 0z"/><path id="pfjQdxmGc" fill-rule="evenodd" class="s0" d="M821.5 1122l40.8.8c37.2.9 41.5 1.4 53 7.2 10 5 13.7 8.8 19.2 19.8 6.3 11.7 7 15.9 7 37.4 0 31.6-4.5 47.5-16.2 56.3-13.5 10.5-25.8 14.5-47.5 16.3l-20 1.5v45c0 27-1 45.7-2.5 46.7-1.3 1-9.5 2-18 2h-15.8zm77.5 93.5c9.8-12 8.3-45-2.7-53.8-4.3-3.5-9.3-4.2-22-3.7l-16.5.7-.8 28.5c-.2 15.8 0 30.3.8 32.3 1 2.8 5.2 3.3 19 2.5 14.5-.8 18.7-2 22.2-6.5z"/><path id="p52vcLlvz" fill-rule="evenodd" class="s0" d="M1201.5 1352c0-5 6.5-39.8 14.8-79.5 3.9-20 12.7-62.5 19.2-94.3l12-58.2h47.8l5.7 25.8c3 13.9 8.3 38.5 11.8 54.2 3.5 15.7 9.2 41.8 12.5 57.5 3.2 15.7 8.7 42 12.2 58.3 9.3 42 10 39.5-11.5 38.7l-17.7-.8-10.5-45-48.5-1.5-2.5 9.5c-1.3 5.3-3.8 16-5.5 24l-3 14.3h-18.5c-13 0-18.3-1-18.3-3zm87.5-82.5c0-4.3-6.7-38.3-9.7-49.5-1.3-4.8-3-11.8-3.8-15.5-2.5-11.5-5.2-8-8.7 11.2-2.8 16.3-8.5 41-11.8 52.5-1.2 3.8.8 4.3 16.3 4.3 12.5 0 17.7-1 17.7-3z"/><path id="p2LLq3Tsh" class="s0" d="M1141 1028.3l-7-1-.3-58c0-32-.2-76.5-.5-99.3l-.5-41.2-23.7-1.3-23.8-1.2-.7-8.5c-.5-4.8-.3-12.5.8-17l1.4-8.3H1219v35h-47l-1.5 7c-.7 3.8-1.2 48.3-1 98.8 0 50.5-.5 92.5-1.2 93.2-2 2-19.5 3.3-27.3 1.8z"/><path id="p1C7IL3tdO" class="s0" d="M689.5 1024.8c-10.3-3-27-20-30.3-30.5-3.2-11.5-5.4-100-2.9-136.8 2.7-41.5 6.7-50 28.9-60.2 15.1-7.3 17.1-7.5 37.6-5.8 25.4 2 33.7 6.5 45 24.5 6.2 10.5 7.7 15.5 8.5 31.8l.7 19.2-11.5 1.8c-17.8 2.7-24 .2-24-9.5 0-11.8-4.2-24.3-9.3-28.3-7.4-5.7-24.4-4.2-32.4 2.5l-7 6-.6 58.5c-.5 32 0 63.3.8 69.3 2 15.2 10 22.7 24 22.7 16.8-.2 22.5-6 24.3-25.2l1.4-16 18.3-.8 18-.7v18.2c0 25.8-7.3 40.5-25 52-12 7.8-15.3 8.5-34.8 9.3-11.7.2-25.2-.5-29.7-2z"/><path id="pCXAtlSY5" fill-rule="evenodd" class="s0" d="M783 1019.5c.8-4.5 4.3-22.3 7.8-39.5 3.5-17.3 7.7-39 9.4-48.8 2-9.5 7-33.7 11.3-53.7 4.2-20 9.5-45.8 11.5-57.3 5.5-30 5.5-30.2 24.5-30.2 30 0 29.8-.3 34.8 24.5 2.2 12 7.5 37 11.7 55.5 4.3 18.5 10.5 47.3 14 63.8 3.5 16.4 9.3 42.5 12.5 57.5 3.3 15.2 5.8 28.9 6 30.7 0 2-5.2 3-18.5 3h-18.2l-4.8-21.5c-5.5-25.5-5.7-25.5-34.8-23.5l-20 1.3-4.5 19.9c-2.7 11.1-5.2 21.6-5.7 23.3-.5 2-6.8 3-19.5 3h-18.8zm88-78c1.8-1.7-13.9-68.8-16.9-72.3-1.1-1-4.3 10.8-7.3 26.3s-6.8 32-8 36.3c-4 12.2-1.5 13.9 16.3 11.9 8.2-.7 15.4-2 15.9-2.2z"/><path id="p19DdHUHd5" class="s0" d="M943.3 1025.8c-4-1-4.3-8-3.8-116.5l.8-115.5H975l19.5 46.2c34.5 81.3 37.5 88 40.3 85.3 1.7-1.8 2.5-26 2-67.8l-.5-65h35.2l.3 9.5c0 5 .2 57.3.5 116.3l.5 106.7h-38.3l-9.2-21.7c-5.3-12.3-13.3-31.5-17.5-43.3-4.5-11.7-13.3-32.2-19.3-45.7L977.8 890l-.8 67.3c-.5 67.2-.5 67.2-6.2 68.7-6.3 1.5-20.8 1.5-27.5-.2z"/><path id="pbCIVy9w5" class="s0" d="M1234 910V792.5h17.5c12.3 0 17.5 1 17.5 3.3 0 1.5.5 54.5 1 117.5l1 114.2h-37z"/><path id="p17yVLQjCc" class="s0" d="M1297.8 1025.3c-5-2-5-4-3.8-116.8l1.3-114.7 16.5-.8 16.5-.7 10.2 23.2c5.8 12.8 16.5 38 23.8 55.8C1386 928 1386.5 929 1389 925c1.5-2 2.5-32.7 2.5-68v-64.5h17.3c15.7 0 17.2.5 18 5.8.5 3 .7 55.2.2 116.2l-.5 110.5h-37.7l-5.8-13c-3.2-7.2-10-24-15-37-12.7-32.7-34-80.7-36.7-83.7-1.8-1.5-2.3 21.2-1.8 64.2.5 36.5 0 67.5-1 68.5-2.7 2.8-25.2 3.8-30.7 1.3z"/><path id="pH4CdK8Ba" class="s0" d="M1448.5 961c-.5-37-.5-90 0-117.8l.8-50.7H1571l1.7 7.5c.8 4 .8 12.3 0 18.8L1571 830h-36.8c-20 0-39 .8-42 1.5-4.7 1.3-5.5 3.8-7 20.3-1 10.2-1 23.2.3 28.9l2.2 10.6 33.3.7 33 .8v34.7h-32.3c-18.7 0-33 1-34 2.5-.7 1.3-1.7 14.3-2 28.8-.2 21 .3 27 3.3 28.7 2 1.3 21.5 2.5 43.2 2.5h39.3v35H1546c-14.3 0-41.8.8-61.3 1.8l-35.5 1.5z"/><path id="p10MnvNCzX" fill-rule="evenodd" class="s0" d="M153.8 914.5c-.1-1.8-.1-8.5.2-14.8.2-6.2-2-20.9-5-32.5-11.3-42.7-11-41.5-7.8-55.2 3-13.5 13.8-34.5 17.5-34.5 5 0 14 36.3 14 56.8v20.5l10-9.3c5.5-5.2 12.8-11.7 16-14.2l5.8-5-1 16.2c-.8 14.3-2 18-9.5 27-4.8 6-12 13-16.5 15.8-5 3-10 9.5-13.3 17.2-5.5 12.5-10 18-10.5 12zm37.8-54c8.7-14.5 6-17.5-5.3-6.7-10 9.7-17.2 20.7-17.2 26.2 0 4.3 17.2-10.5 22.5-19.5zm-38-33.2c-.3-21.8-.8-24.8-3.8-20.8-4 5.5-4.2 23-.2 36 1.7 5.5 3.5 10 3.7 10 .3 0 .3-11.5.3-25.2zm12-3.3c-1-7.7-3-14.5-4.3-15.2-2.5-1.8-3.2 28.5-.5 35.2 3.3 8.5 6.5-5.2 4.8-20z"/></g></g></svg>