<svg version="1.2" baseProfile="tiny-ps" xmlns="http://www.w3.org/2000/svg" viewBox="0 0 510 263"><style>tspan { white-space:pre } .shp0 { opacity: 0.996;fill: #1a1a17 } .shp1 { opacity: 0.996;fill: #d1d1cf } .shp2 { opacity: 0.996;fill: #767774 } .shp3 { fill: #b1b1af } .shp4 { opacity: 0.318;fill: #dfdedf } .shp5 { opacity: 0.996;fill: #414140 } .shp6 { opacity: 0.996;fill: #5a5a59 } .shp7 { opacity: 0.996;fill: #92928f } .shp8 { opacity: 0.675;fill: #dfdeda }</style><g id="Background"><path id="Path 0" fill-rule="evenodd" class="shp0" d="M508.55 0c.8 0 1.45.9 1.45 2s-.34 1.99-.75 1.98c-.41 0-1.42-.4-2.25-.88-.86-.51-1.16-1.35-.7-1.99.44-.61 1.45-1.11 2.25-1.11zM70.5 15.08c3.3-.02 8.03.43 10.5 1 2.89.66 5.88 2.35 8.37 4.72 2.13 2.04 4.94 5.95 6.24 8.7 1.76 3.71 2.37 6.74 2.39 18.5l-3.75.61c-2.06.34-5.1.34-6.75.01-2.8-.55-3.05-.97-3.72-6.36-.39-3.17-1.52-6.84-2.5-8.17-.98-1.32-3.13-2.77-4.78-3.22-1.7-.47-4.63-.4-6.75.15-2.06.54-4.9 2.22-8.85 6.48l.17 28.5c.12 20.46.53 29.35 1.44 31.5.7 1.65 2.45 3.56 3.88 4.25 1.44.69 4.19 1.25 6.11 1.25s4.85-.79 6.5-1.75c1.66-.96 3.31-2.42 3.68-3.25.37-.83.93-4.2 1.82-13.5h14l.3 7.5c.24 5.84-.15 8.55-1.75 12.25-1.46 3.39-3.53 5.82-7.24 8.5-2.86 2.06-6.79 4.21-8.75 4.78-2.2.63-6.71.73-11.81.25-4.54-.43-9.49-1.41-11-2.19-1.51-.78-3.96-2.69-5.45-4.25-1.48-1.56-3.62-4.98-4.75-7.59-1.92-4.44-2.05-6.75-2.1-35.5-.04-27.93.13-31.35 1.94-37.25 1.1-3.58 2.81-7.26 3.8-8.19 1-.92 4.28-3.04 7.31-4.69 4.36-2.39 6.75-3.02 11.5-3.04zm61.03-.08c5.72 0 8.88.43 9.72 1.32.69.73 1.85 4.21 2.58 7.75s2.43 11.38 3.78 17.43c1.35 6.05 3.31 14.83 4.35 19.5 1.05 4.67 3.32 15.03 5.04 23 1.73 7.97 3.99 18.55 5.03 23.5 1.03 4.95 1.64 9.22 1.35 9.5-.3.28-3.54.37-7.21.21-3.67-.17-7.01-.62-7.42-1-.42-.39-1.57-4.76-4.35-18.71L122 97l-.96 3.25c-.53 1.79-1.66 6.51-4.04 17.75h-7.5c-6 0-7.5-.3-7.5-1.5 0-.82.41-3.41.92-5.75.5-2.34 2.07-10.33 3.48-17.75 1.42-7.42 3.22-16.65 4-20.5.79-3.85 2.86-13.53 4.6-21.5 1.74-7.98 3.74-18.33 4.46-23 .71-4.67 1.81-9.51 2.44-10.75 1.06-2.07 1.85-2.25 9.63-2.25zM130 59.5c-.01 1.1-.88 5.6-1.94 10-1.05 4.4-2.18 8.79-2.49 9.75-.51 1.55.21 1.75 6.43 1.75 6.6 0 7-.13 6.98-2.25-.01-1.24-.88-6.08-1.93-10.75-1.06-4.67-2.39-10.64-2.96-13.25-.58-2.61-1.26-4.75-1.53-4.75s-.95 1.69-1.52 3.75c-.56 2.06-1.03 4.65-1.04 5.75z"/><path id="Path 1" class="shp1" d="M174.5 15.72c1.65.22 4.8.22 7 .01 2.2-.22.85-.4-3-.4-3.85-.01-5.65.17-4 .39z"/><path id="Path 2" class="shp0" d="M235.75 15.9c-.35.63-1 3.56-1.44 6.5-.64 4.2-.49 5.71.69 7.02 1.18 1.31 3.31 1.66 10 1.64 4.68-.02 9.05.3 9.73.71.95.56 1.18 10.47 1 43.23l-.23 42.5c10.85 1.27 14.23 1.35 14.5.99.27-.36.55-19.41.61-42.32.06-22.92.17-42.46.25-43.42.12-1.55 1.36-1.75 10.64-1.75H292V16c-35.26-.01-47.78-.29-50.56-.63-3.36-.41-5.27-.23-5.69.53z"/><path id="Path 3" class="shp2" d="M249 15.73c1.93.21 5.3.21 7.5 0 2.2-.22.63-.39-3.5-.39-4.12 0-5.93.17-4 .39z"/><path id="Path 4" class="shp1" d="M270 15.73c2.48.21 6.07.21 8 0 1.93-.22-.1-.39-4.5-.39-4.4.01-5.98.18-3.5.39zm146.5.02c6.05.17 15.5.17 21 0 5.5-.18.55-.33-11-.33s-16.05.15-10 .33z"/><path id="Path 5" class="shp0" d="M172.39 16.77c-.78.51-1.31 15.69-1.75 50.48L170 117c5.04.88 8.3 1 10.5.82l4-.32c.94-9.3.94-22.69.6-35.75-.56-22.19-.48-23.75 1.15-23.75 1.15 0 2.15 1.29 2.92 3.75.64 2.06 3.16 8.03 5.59 13.25 2.44 5.22 5.56 12.65 6.94 16.5 1.38 3.85 4.37 11.15 6.65 16.22l4.15 9.21c8.52.48 11.9.47 13 .28 1.97-.34 2-1.16 2.07-50.78l.08-50.43H213c.04 44.56-.29 57.81-.72 58.2-.43.38-1.34.5-2.03.25-.69-.25-1.25-.9-1.25-1.45 0-.55-1.38-3.81-3.07-7.25-1.68-3.44-4.84-10.75-7.03-16.25-2.18-5.5-6.31-15.3-9.18-21.78l-5.22-11.78c-8.53.07-11.5.42-12.11.83z"/><path id="Path 6" class="shp3" d="M298.45 48c0 17.88.13 25.08.3 16 .16-9.08.16-23.7 0-32.5-.17-8.8-.3-1.37-.3 16.5z"/><path id="Path 7" class="shp0" d="M299.33 17.61c-.34.89-.29 23.73.1 50.75.4 27.03.8 49.19.9 49.25.09.06 3.43.4 7.42.75l7.25.64c-.77-44.56-.99-67.74-.99-80.25L314 16c-12.57 0-14.18.34-14.67 1.61z"/><path id="Path 8" class="shp3" d="M314.38 27c0 6.33.16 8.8.36 5.5.2-3.3.2-8.48 0-11.5-.2-3.02-.36-.33-.36 6z"/><path id="Path 9" class="shp0" d="M327.6 16.67c-1.82.43-1.9 2.06-2 41.64-.05 22.65.01 45.13.15 49.94L326 117c10.23.39 13.72.18 14.35-.21.85-.53.95-8.27.4-29.75-.59-23.03-.49-28.97.5-28.71.69.18 1.79 1.42 2.44 2.75.66 1.33 3.43 7.37 6.17 13.42 2.73 6.05 5.28 12.13 5.67 13.5.38 1.38 2.97 7.9 5.75 14.5s5.54 12.58 6.14 13.29c.71.85 3.57 1.28 8.33 1.25L383 117V16c-13.4 0-14.05.19-14.64 2.25-.34 1.24-.49 12.38-.33 24.75.17 12.38.23 24.64.14 27.25-.13 3.48-.57 4.75-1.67 4.75-.82 0-2.22-1.69-3.1-3.75-.87-2.06-3.39-8.03-5.58-13.25-2.19-5.22-5.55-13.33-7.45-18-1.91-4.67-5.14-12-7.17-16.28l-3.7-7.78c-7.75.23-10.85.49-11.9.73z"/><path id="Path 10" class="shp2" d="M383.39 29c0 7.42.16 10.35.35 6.5.19-3.85.19-9.92 0-13.5s-.35-.42-.35 7z"/><path id="Path 11" class="shp4" d="M392.37 25.5c0 5.5.17 7.52.37 4.5.2-3.02.2-7.52-.01-10-.2-2.48-.37 0-.36 5.5z"/><path id="Path 12" class="shp2" d="M393.42 35c0 10.73.15 15.23.33 10 .18-5.23.18-14 0-19.5s-.33-1.23-.33 9.5z"/><path id="Path 13" class="shp0" d="M393.75 41c-.14 13.75-.25 28.38-.25 32.5 0 4.13.11 15.71.25 25.75l.25 18.25c18.21-.34 30.14-.45 38.25-.47L447 117v-14c-17.44-.08-25.43-.32-29-.59-3.57-.26-7.06-.68-7.75-.94-.9-.34-1.25-3.59-1.25-11.47 0-6.78.48-11.97 1.25-13.53 1.25-2.52 1.28-2.53 15-2.5L439 74c-.02-7.36-.25-10.51-.51-11.75-.48-2.19-.87-2.26-14.73-2.5l-14.23-.25c-1.19-8.14-1.19-14.21-.78-18.75l.75-8.25L447 32V16h-53l-.25 25z"/><path id="Path 14" class="shp1" d="M169.44 45c0 15.68.14 21.97.31 14 .17-7.97.17-20.8 0-28.5-.17-7.7-.31-1.18-.31 14.5z"/><path id="Path 15" class="shp5" d="M170.36 26c0 5.23.17 7.25.38 4.5.2-2.75.2-7.02 0-9.5-.21-2.48-.38-.23-.38 5z"/><path id="Path 16" class="shp3" d="M228.37 27.5c.01 6.05.17 8.3.37 5 .2-3.3.2-8.25 0-11-.21-2.75-.37-.05-.37 6z"/><path id="Path 17" class="shp6" d="M325.34 24.5c.01 4.4.18 5.98.39 3.5.21-2.48.21-6.08 0-8-.22-1.93-.39.1-.39 4.5z"/><path id="Path 18" class="shp3" d="M212.34 38c0 4.13.17 5.92.39 4 .21-1.92.21-5.3 0-7.5-.22-2.2-.39-.62-.39 3.5zM240 31.74c3.02.2 7.52.2 10-.01 2.48-.2 0-.37-5.5-.36-5.5 0-7.52.17-4.5.37zm35.5 0c2.75.2 7.48.2 10.5 0 3.02-.2.77-.37-5-.37s-8.25.17-5.5.37zm142.5 1c4.68.19 12.77.19 18 .01 5.23-.19 1.4-.34-8.5-.34s-14.18.15-9.5.33z"/><path id="Path 19" class="shp6" d="M170.37 44.5c0 5.5.17 7.53.37 4.5.2-3.02.2-7.52-.01-10-.2-2.48-.37 0-.36 5.5zm99.98-1c0 4.95.17 7.2.38 5s.21-6.25.01-9c-.21-2.75-.38-.95-.39 4z"/><path id="Path 20" class="shp7" d="M314.38 49.5c0 6.6.17 9.08.36 5.5.2-3.58.19-8.98 0-12-.2-3.02-.36-.1-.36 6.5z"/><path id="Path 21" class="shp1" d="M254.42 58.5c0 10.45.15 14.5.33 9 .18-5.5.18-14.05-.01-19-.18-4.95-.32-.45-.32 10z"/><path id="Path 22" class="shp4" d="M392.33 46.5c0 3.85.18 5.2.4 3 .21-2.2.21-5.35-.01-7-.22-1.65-.4.15-.39 4z"/><path id="Path 23" class="shp1" d="M212.38 56.5c0 6.6.17 9.08.36 5.5.2-3.58.19-8.97 0-12-.2-3.02-.36-.1-.36 6.5z"/><path id="Path 24" class="shp3" d="M383.39 60.5c0 7.15.16 9.85.35 6 .19-3.85.19-9.7 0-13-.2-3.3-.35-.15-.35 7z"/><path id="Path 25" class="shp6" d="M227.4 64c0 8.53.16 11.9.34 7.5.19-4.4.19-11.37 0-15.5-.18-4.12-.34-.53-.34 8z"/><path id="Path 26" class="shp5" d="M170.37 63.5c0 5.5.17 7.53.37 4.5.2-3.03.2-7.53-.01-10-.2-2.47-.37 0-.36 5.5z"/><path id="Path 27" class="shp6" d="M325.36 65c0 5.22.17 7.25.38 4.5.2-2.75.2-7.03 0-9.5-.21-2.47-.38-.22-.38 5z"/><path id="Path 28" class="shp2" d="M185.35 66c0 4.67.17 6.47.38 4 .21-2.47.21-6.3 0-8.5s-.38-.17-.38 4.5z"/><path id="Path 29" class="shp5" d="M340.37 68c0 5.78.17 8.03.37 5 .2-3.03.2-7.75 0-10.5s-.37-.28-.37 5.5z"/><path id="Path 30" class="shp1" d="M340.94 70.5c0 7.15.21 12.78.47 12.5.25-.28.51-5.9.58-12.5.06-6.6-.15-12.22-.46-12.5-.32-.28-.59 5.35-.59 12.5z"/><path id="Path 31" class="shp2" d="M417 59.74c4.13.19 10.65.19 14.5 0 3.85-.19.48-.34-7.5-.34s-11.12.15-7 .34z"/><path id="Path 32" class="shp6" d="M255.4 76c0 7.97.15 11.35.34 7.5.19-3.85.19-10.37 0-14.5-.19-4.12-.34-.97-.34 7z"/><path id="Path 33" class="shp1" d="M271.42 87.5c0 11 .15 15.72.32 10.5.18-5.22.18-14.22.01-20-.18-5.78-.33-1.5-.33 9.5z"/><path id="Path 34" class="shp6" d="M185.34 81c0 4.13.17 5.92.39 4 .21-1.92.21-5.3 0-7.5-.22-2.2-.39-.62-.39 3.5z"/><path id="Path 35" class="shp5" d="M325.36 83c0 5.22.17 7.25.38 4.5.2-2.75.2-7.03 0-9.5-.21-2.47-.38-.22-.38 5z"/><path id="Path 36" class="shp2" d="M417 74.74c3.57.19 9.88.19 14 0 4.13-.19 1.2-.34-6.5-.35-7.7 0-11.07.16-7.5.35z"/><path id="Path 37" class="shp6" d="M393.35 89c0 4.67.17 6.47.38 4 .21-2.47.21-6.3 0-8.5s-.38-.17-.38 4.5z"/><path id="Path 38" class="shp1" d="M254.35 90c0 4.67.17 6.47.38 4 .21-2.47.21-6.3 0-8.5s-.38-.17-.38 4.5z"/><path id="Path 39" class="shp7" d="M169.37 92.5c0 5.5.17 7.53.37 4.5.2-3.03.2-7.53-.01-10-.2-2.47-.37 0-.36 5.5z"/><path id="Path 40" class="shp3" d="M341.35 91.5c0 4.95.17 7.2.38 5s.21-6.25.01-9c-.21-2.75-.38-.95-.39 4z"/><path id="Path 41" class="shp5" d="M270.36 100c0 5.22.17 7.25.38 4.5.2-2.75.2-7.03 0-9.5-.21-2.47-.38-.22-.38 5z"/><path id="Path 42" class="shp1" d="M298.38 106.5c0 6.6.17 9.07.36 5.5.2-3.58.19-8.97 0-12-.2-3.03-.36-.1-.36 6.5z"/><path id="Path 43" class="shp3" d="M228.37 105.5c0 5.5.17 7.53.37 4.5.2-3.03.2-7.53-.01-10-.2-2.47-.37 0-.36 5.5zm203.13-2.77c2.2.21 6.02.21 8.5 0 2.48-.21.68-.38-4-.38s-6.7.17-4.5.38z"/><path id="Path 44" class="shp1" d="M169.34 110c0 4.13.17 5.93.39 4 .21-1.92.21-5.3 0-7.5-.22-2.2-.39-.62-.39 3.5z"/><path id="Path 45" class="shp5" d="M402.5 117.74c2.75.2 6.8.2 9-.01 2.2-.21-.05-.38-5-.38-4.95.01-6.75.18-4 .39z"/><path id="Path 46" class="shp3" d="M431.5 117.74c2.75.2 7.48.2 10.5 0 3.02-.2.77-.37-5-.37s-8.25.17-5.5.37z"/><path id="Path 47" class="shp1" d="M399 118.74c3.02.2 8.2.2 11.5 0 3.3-.2.82-.36-5.5-.36s-9.02.16-6 .36zm-96.5.98c1.65.22 4.8.22 7 .01 2.2-.22.85-.4-3-.4-3.85-.01-5.65.17-4 .39zM6 159.74c3.58.19 9.88.19 14 0 4.13-.19 1.2-.34-6.5-.35-7.7 0-11.08.16-7.5.35z"/><path id="Path 48" fill-rule="evenodd" class="shp0" d="M86 159.03c5.4-.01 7.39.5 11.75 2.98 2.89 1.64 6.06 4.23 7.05 5.74 1 1.51 2.68 4.76 3.75 7.22 1.8 4.12 1.95 6.96 1.95 37.5 0 32.08-.06 33.16-2.22 37.53-1.4 2.84-3.79 5.53-6.5 7.29-2.35 1.53-6.75 3.5-9.78 4.38-3.33.96-7.48 1.39-10.5 1.1-3.67-.36-6.66-1.58-11.25-4.63-5.42-3.59-6.67-5.03-12.58-17.64l.76-32.5c.53-22.62 1.15-33.41 2.04-35.5.71-1.65 2.58-4.23 4.16-5.74 1.58-1.5 5.57-3.85 8.87-5.22 4.27-1.78 7.87-2.5 12.5-2.51zm-10.3 20.59c-.44 1.03-1.05 11.33-1.36 22.88-.32 12.24-.1 24.96.52 30.5.75 6.76 1.58 10.01 2.85 11.27.98.97 2.92 2.02 4.29 2.34 1.38.31 4.19.08 6.25-.52 2.57-.75 4.22-2.03 5.25-4.09 1.13-2.26 1.48-6.4 1.42-16.75-.05-7.56-.38-20.93-.75-29.71l-.67-15.97c-5.42-3.58-7.9-4.58-9-4.52-1.1.06-3.35.69-5 1.4-1.65.7-3.36 2.13-3.8 3.17z"/><path id="Path 49" class="shp1" d="M128.5 159.74c3.3.2 8.25.2 11 0 2.75-.21.05-.37-6-.37-6.05.01-8.3.17-5 .37z"/><path id="Path 50" class="shp0" d="M179.42 159.69c-2.49.35-3.22 1.04-3.82 3.62-.41 1.75-.59 20.51-.4 41.69.31 34.28.54 38.94 2.13 42.5.97 2.2 2.99 5.28 4.47 6.84 1.49 1.56 4.5 3.77 6.7 4.91 2.46 1.27 6.69 2.25 11 2.54 4.9.33 8.8-.05 13-1.27 4.13-1.2 7.13-2.88 9.62-5.38 2.73-2.74 3.9-5 4.73-9.14.65-3.29 1.21-21.76 1.37-46 .26-38.01.17-40.5-1.47-40.5-.96 0-4.45.11-7.75.25l-6 .25c0 64.64-.39 80.86-1 82.25-.56 1.24-2.13 2.81-3.5 3.5-1.38.69-4.53 1.25-7 1.25-3.33 0-5.21-.63-7.25-2.41l-2.75-2.42c-.45-73.16-.77-82.17-1.75-82.16-.69.01-2.6-.16-4.25-.37s-4.38-.19-6.08.05z"/><path id="Path 51" class="shp3" d="M189.25 159.62c1.63.35 1.77 3.23 2.01 40.63l.26 40.25.48-81.5c-3.84.2-3.99.34-2.75.62z"/><path id="Path 52" fill-rule="evenodd" class="shp0" d="M315.5 159.18c1.65-.09 4.7.17 6.77.58 3.59.71 3.8.96 4.5 5.6.4 2.68 1.07 5.04 1.48 5.25.41.22.52.84.25 1.39-.27.55.56 5.16 1.86 10.25s2.68 11.5 3.06 14.25c.38 2.75 1.29 7.03 2.03 9.5.75 2.47 2.12 8.78 3.05 14 .93 5.22 2.53 12.88 3.56 17 1.03 4.13 2.56 10.54 3.4 14.25.85 3.71 1.54 7.43 1.54 8.25 0 1.19-1.48 1.5-14.5 1.52l-5-19.52h-21.92l-1.19 3.5c-.65 1.93-1.8 6.43-3.92 16.5l-7.74.25c-7.53.24-7.72.19-7.3-2 .24-1.24.74-4.05 1.11-6.25.37-2.2 2.4-12.55 4.52-23 2.11-10.45 4.76-23.5 5.88-29 1.13-5.5 2.95-14.5 4.06-20 1.1-5.5 2.46-12.59 3-15.75.99-5.71 1.02-5.75 4.75-6.08 2.06-.18 5.1-.4 6.75-.49zm-.82 38.57c-.18.41-.68 3-1.1 5.75-.42 2.75-1.63 8.6-2.69 13-1.05 4.4-1.91 8.11-1.9 8.25 0 .14 3.16.25 7.01.25 6.17 0 6.95-.21 6.55-1.75-.24-.96-.95-4.68-1.58-8.25-.62-3.57-2.01-9.65-3.08-13.5-1.08-3.85-2.18-7.22-2.45-7.5-.27-.28-.48.29-.47 1.25.02.96-.12 2.09-.29 2.5z"/><path id="Path 53" class="shp7" d="M386 159.74c3.02.2 7.52.2 10-.01 2.48-.2 0-.37-5.5-.36-5.5 0-7.52.17-4.5.37z"/><path id="Path 54" class="shp3" d="M464.5 159.75c4.95.18 13.27.18 18.5 0 5.23-.19 1.17-.33-9-.33-10.18 0-14.45.14-9.5.33z"/><path id="Path 55" fill-rule="evenodd" class="shp0" d="M.44 159.71l16.03.73c10.88.5 17.96 1.32 22.03 2.57 4.4 1.35 6.68 2.73 8.56 5.16 1.41 1.83 3.21 4.9 4 6.83 1.01 2.44 1.42 7.27 1.37 16-.06 10.24-.42 13.2-2 16.38-1.06 2.13-3.73 5.16-5.93 6.72-2.2 1.56-6.7 3.53-10 4.37-3.3.85-8.59 1.54-11.75 1.54-3.58-.01-6 .46-6.42 1.24-.37.69-.6 9.91-.33 39.75l-3.75.62c-2.06.35-5.33.35-7.25 0-1.92-.34-3.8-1.19-4.18-1.87-.37-.69-.61-23.48-.53-50.64l.15-49.4zm16.2 26.79c-.35 5.78-.3 11.83.11 13.47.66 2.6 1.31 3.04 5.25 3.58 2.48.34 6.41.13 8.75-.47 2.5-.64 4.48-1.8 4.8-2.83.31-.96.83-4.22 1.16-7.25.38-3.5.09-7.28-.8-10.39-.98-3.4-2.1-5.16-3.66-5.75-1.24-.47-5.11-.86-8.61-.86h-6.35l-.65 10.5zm102.48-26.61l16.19.69c11.57.49 17.62 1.2 21.19 2.48 2.91 1.04 6.2 3.18 7.86 5.11 1.58 1.83 3.56 4.9 4.41 6.83 1.08 2.46 1.55 6.91 1.59 15 .04 9.42-.32 12.31-1.96 16-1.11 2.47-3.56 5.71-5.45 7.19-1.9 1.48-5.25 3.43-7.45 4.34-2.2.91-7.77 1.95-12.38 2.31-7.45.59-8.47.91-9.25 2.91-.48 1.24-.78 10.01-.68 19.5.1 9.49-.12 17.81-.5 18.5-.46.83-2.68 1.17-6.61 1-3.25-.14-6.2-.48-6.54-.75-.35-.27-.64-22.1-.65-48.5-.01-26.4.04-49.04.11-50.31l.12-2.3zm15.35 30.86L134 203c7.36.9 11.41.68 13.75.08 2.71-.69 4.66-1.89 5.37-3.33.62-1.24 1.15-5.62 1.18-9.75.02-4.12-.49-8.51-1.13-9.75-.64-1.24-2.29-2.7-3.67-3.25-1.37-.55-5.2-1-8.5-1-4.12 0-6.01.39-6.03 1.25-.02.69-.25 6.76-.5 13.5z"/><path id="Path 56" class="shp1" d="M229.33 166.5c0 3.85.18 5.2.4 3 .21-2.2.21-5.35-.01-7-.22-1.65-.4.15-.39 4zm6.04 3.5c0 5.78.17 8.03.37 5 .2-3.03.2-7.75 0-10.5s-.37-.28-.37 5.5z"/><path id="Path 57" fill-rule="evenodd" class="shp0" d="M251 160l.13 29.25c.06 16.09.4 35.78 1.37 58.25l14.75.25c14.39.24 14.76.3 15.24 2.5.26 1.24.49 3.71.5 5.5 0 1.79-.22 3.93-.49 4.75-.42 1.27-3.92 1.5-46 1.5l-.46-49.97c-.25-27.49-.12-50.44.3-51 .42-.57 3.89-1.03 14.66-1.03zm118 0v22.5c0 12.67.44 23.59 1 25 .71 1.77.66 2.72-.15 3.25-.84.55-.98 7.45.15 51.25l-3.25.19c-1.79.1-4.6.28-6.25.4-1.65.11-3.59-.08-4.32-.44-1.05-.52-1.42-10.54-1.82-49.87-.28-27.07-.26-49.91.04-50.75.42-1.18 2.17-1.53 14.6-1.53zm12.12 0l13.69.04c7.71.02 16.09.6 19.19 1.34 3.02.73 6.85 2 8.5 2.84 1.65.84 4.24 3.39 5.75 5.66 1.51 2.26 3.27 6.26 3.91 8.87.72 2.98.91 8 .5 13.5-.36 4.81-1.36 10.44-2.21 12.5-.84 2.06-3.8 6-11.6 13.75l4.02 12c2.21 6.6 5.4 15.94 7.08 20.75 1.68 4.81 3.05 9.2 3.05 9.75 0 .55-2.14.99-4.75.99-2.61-.01-5.65-.26-6.75-.55-1.1-.29-2.72-1.75-3.59-3.24-.88-1.48-3.07-7.88-4.87-14.2-1.8-6.32-4.46-14.35-8.54-24.17l-8 .67-.65 5.5c-.36 3.03-.69 12.47-.83 36.5l-6.91-.5c-3.8-.27-7.07-.73-7.26-1-.19-.27-.21-23.11-.04-50.75l.31-50.25zm15.71 30.17L397 203c10.07 0 14.01-.52 15.25-1.15 1.24-.63 2.58-1.64 2.98-2.25.41-.6.76-5.15.79-10.1.04-7.94-.21-9.23-2.1-11-1.58-1.48-3.85-2.09-8.78-2.34-3.65-.19-7.05-.01-7.56.41-.5.42-.84 6.54-.75 13.6z"/><path id="Path 58" class="shp1" d="M440.42 178.5c0 10.45.15 14.5.33 9 .18-5.5.18-14.05-.01-19-.18-4.95-.32-.45-.32 10z"/><path id="Path 59" class="shp0" d="M441.35 210.42c.08 27.73.38 50.67.65 50.98.27.32 12.08.24 26.23-.16l25.73-.74c1-6.2 1.03-9.12.71-10.5l-.57-2.5c-28.37-1.28-36.83-1.88-37.1-2.16-.27-.28-.4-5.99-.28-12.68.15-8.26.64-12.58 1.5-13.45.93-.94 4.96-1.29 14.53-1.25L486 218c0-13.67-.12-14.02-2.5-14.5-1.37-.28-7.83-.16-14.35.25l-11.85.75c-1.11-6.2-1.35-11.6-1.23-16 .11-4.4.59-9.01 1.06-10.25.86-2.22 1.13-2.25 18.87-2.25h18c.96-6.59.96-10.19.62-12.25L494 160h-52.8l.15 50.42z"/><path id="Path 60" class="shp3" d="M353.34 169c0 4.13.17 5.93.39 4 .21-1.93.21-5.3 0-7.5-.22-2.2-.39-.62-.39 3.5z"/><path id="Path 61" class="shp7" d="M251.37 175.5c.01 6.05.17 8.3.37 5 .2-3.3.2-8.25 0-11-.21-2.75-.37-.05-.37 6z"/><path id="Path 62" class="shp5" d="M441.34 172c0 4.13.17 5.93.39 4 .21-1.93.21-5.3 0-7.5-.22-2.2-.39-.62-.39 3.5z"/><path id="Path 63" class="shp3" d="M380.34 176.5c.01 4.4.18 5.97.39 3.5.21-2.47.21-6.07 0-8-.22-1.93-.39.1-.39 4.5z"/><path id="Path 64" class="shp7" d="M118.4 184.5c0 8.25.16 11.4.34 7 .19-4.4.19-11.15 0-15-.19-3.85-.34-.25-.34 8z"/><path id="Path 65" class="shp2" d="M228.42 193.5c0 11 .15 15.72.32 10.5.18-5.22.18-14.22.01-20-.18-5.78-.33-1.5-.33 9.5z"/><path id="Path 66" class="shp3" d="M494 175c0 .62-6.93 1.1-18.25 1.27l-18.25.28c34.85.42 37.5.24 37.5-1.05 0-.82-.23-1.5-.5-1.5s-.5.45-.5 1z"/><path id="Path 67" class="shp7" d="M353.4 191c0 8.53.16 11.9.34 7.5.19-4.4.19-11.37 0-15.5-.18-4.12-.34-.53-.34 8zm42.98-4c0 6.32.16 8.8.36 5.5.2-3.3.2-8.47 0-11.5-.2-3.03-.36-.32-.36 6z"/><path id="Path 68" class="shp3" d="M212.38 188c0 6.32.16 8.8.36 5.5.2-3.3.2-8.47 0-11.5-.2-3.03-.36-.32-.36 6zm220.96-1c0 4.13.17 5.93.39 4 .21-1.93.21-5.3 0-7.5-.22-2.2-.39-.62-.39 3.5z"/><path id="Path 69" class="shp1" d="M171.34 188.5c.01 4.4.18 5.97.39 3.5.21-2.47.21-6.07 0-8-.22-1.93-.39.1-.39 4.5zm245 0c.01 4.4.18 5.97.39 3.5.21-2.47.21-6.07 0-8-.22-1.93-.39.1-.39 4.5z"/><path id="Path 70" class="shp6" d="M417.34 188.5c.01 4.4.18 5.97.39 3.5.21-2.47.21-6.07 0-8-.22-1.93-.39.1-.39 4.5z"/><path id="Path 71" class="shp1" d="M94.39 194c0 6.88.16 9.57.35 6 .2-3.57.2-9.2 0-12.5-.19-3.3-.35-.37-.35 6.5z"/><path id="Path 72" class="shp5" d="M95.39 194c0 6.88.16 9.57.35 6 .2-3.57.2-9.2 0-12.5-.19-3.3-.35-.37-.35 6.5z"/><path id="Path 73" class="shp3" d="M235.4 201.5c0 8.25.16 11.4.34 7 .19-4.4.19-11.15 0-15-.19-3.85-.34-.25-.34 8z"/><path id="Path 74" class="shp7" d="M251.39 199.5c0 7.15.16 9.85.35 6 .19-3.85.19-9.7 0-13-.2-3.3-.35-.15-.35 7z"/><path id="Path 75" class="shp2" d="M380.33 196.5c0 3.85.18 5.2.4 3 .21-2.2.21-5.35-.01-7-.22-1.65-.4.15-.39 4zm-10.99 1.5c0 4.13.17 5.93.39 4 .21-1.93.21-5.3 0-7.5-.22-2.2-.39-.62-.39 3.5z"/><path id="Path 76" class="shp1" d="M111.33 206.5c0 3.85.18 5.2.4 3 .21-2.2.21-5.35-.01-7-.22-1.65-.4.15-.39 4z"/><path id="Path 77" class="shp7" d="M211.93 205.75c-.03 2.06-.15 5.7-.25 8.09-.1 2.39.15 4.86.55 5.5.41.64.75-3 .75-8.09.01-5.09-.2-9.25-.48-9.25-.28 0-.53 1.69-.57 3.75z"/><path id="Path 78" class="shp1" d="M474 202.73c2.48.21 6.08.21 8 0 1.92-.22-.1-.39-4.5-.39-4.4.01-5.98.18-3.5.39z"/><path id="Path 79" class="shp2" d="M461 203.73c1.93.21 5.3.21 7.5 0 2.2-.22.63-.39-3.5-.39-4.12 0-5.93.17-4 .39z"/><path id="Path 80" class="shp7" d="M.35 213c0 4.68.17 6.47.38 4 .21-2.47.21-6.3 0-8.5s-.38-.18-.38 4.5z"/><path id="Path 81" class="shp1" d="M57.39 217.5c0 7.15.16 9.85.35 6 .19-3.85.19-9.7 0-13-.2-3.3-.35-.15-.35 7z"/><path id="Path 82" class="shp3" d="M353.33 212.5c0 3.85.18 5.2.4 3 .21-2.2.21-5.35-.01-7-.22-1.65-.4.15-.39 4z"/><path id="Path 83" class="shp1" d="M117.35 215c0 4.68.17 6.47.38 4 .21-2.47.21-6.3 0-8.5s-.38-.18-.38 4.5zm322.98 2.5c0 3.85.18 5.2.4 3 .21-2.2.21-5.35-.01-7-.22-1.65-.4.15-.39 4z"/><path id="Path 84" class="shp6" d="M380.38 234c0 6.32.16 8.8.36 5.5.2-3.3.2-8.47 0-11.5-.2-3.03-.36-.32-.36 6z"/><path id="Path 85" class="shp1" d="M235.35 235c0 4.68.17 6.47.38 4 .21-2.47.21-6.3 0-8.5s-.38-.18-.38 4.5z"/><path id="Path 86" class="shp6" d="M354.35 236.5c0 4.95.17 7.2.38 5s.21-6.25.01-9c-.21-2.75-.38-.95-.39 4zm41.05 7.5c0 7.98.15 11.35.34 7.5.19-3.85.19-10.37 0-14.5-.19-4.12-.34-.97-.34 7z"/><path id="Path 87" class="shp1" d="M16.39 246.5c.01 7.7.16 10.63.35 6.5.19-4.12.19-10.43 0-14-.19-3.57-.35-.2-.35 7.5z"/><path id="Path 88" class="shp8" d="M396.35 242.5c0 4.95.17 7.2.38 5s.21-6.25.01-9c-.21-2.75-.38-.95-.39 4z"/><path id="Path 89" class="shp2" d="M118.39 249c0 6.88.16 9.57.35 6 .2-3.57.2-9.2 0-12.5-.19-3.3-.35-.37-.35 6.5z"/><path id="Path 90" class="shp5" d="M236.33 248.5c0 3.85.18 5.2.4 3 .21-2.2.21-5.35-.01-7-.22-1.65-.4.15-.39 4z"/><path id="Path 91" class="shp1" d="M353.35 251.5c0 4.95.17 7.2.38 5s.21-6.25.01-9c-.21-2.75-.38-.95-.39 4z"/><path id="Path 92" class="shp5" d="M441.37 252.5c0 5.5.17 7.52.37 4.5.2-3.02.2-7.52-.01-10-.2-2.48-.37 0-.36 5.5z"/><path id="Path 93" class="shp6" d="M262.5 247.74c3.3.2 8.93.2 12.5 0 3.57-.19.88-.35-6-.35-6.87 0-9.8.16-6.5.35z"/><path id="Path 94" class="shp1" d="M471.5 261.74c3.3.2 8.92.2 12.5 0 3.58-.19.88-.35-6-.35-6.87 0-9.8.16-6.5.35z"/><path id="Path 95" class="shp3" d="M242 262.73c1.93.21 5.3.21 7.5 0 2.2-.22.63-.39-3.5-.39-4.12 0-5.93.17-4 .39z"/></g></svg>